<svg width="288" height="288" viewBox="0 0 288 288" fill="none" xmlns="http://www.w3.org/2000/svg">
<g filter="url(#filter0_d_146_4704)">
<g clip-path="url(#clip0_146_4704)">
<rect width="280" height="280" rx="12" fill="#F78F97"/>
<mask id="path-2-inside-1_146_4704" fill="white">
<path d="M-24.5908 83.2772C-23.3854 79.921 -19.6875 78.1774 -16.3312 79.3828L126.834 130.801C130.19 132.007 131.934 135.705 130.728 139.061L118.224 173.876C117.019 177.232 113.321 178.975 109.965 177.77L-33.2003 126.351C-36.5565 125.146 -38.3001 121.448 -37.0947 118.092L-24.5908 83.2772Z"/>
</mask>
<path d="M-24.5908 83.2772C-23.3854 79.921 -19.6875 78.1774 -16.3312 79.3828L126.834 130.801C130.19 132.007 131.934 135.705 130.728 139.061L118.224 173.876C117.019 177.232 113.321 178.975 109.965 177.77L-33.2003 126.351C-36.5565 125.146 -38.3001 121.448 -37.0947 118.092L-24.5908 83.2772Z" fill="url(#paint0_linear_146_4704)"/>
<path d="M-22.4082 77.2002L132.911 132.984L-22.4082 77.2002ZM119.965 174.501C118.415 178.818 113.657 181.061 109.34 179.511L-32.0847 128.717C-36.4023 127.167 -38.6454 122.41 -37.0947 118.092C-37.9548 120.487 -35.9313 123.405 -32.5751 124.611L110.59 176.029C112.985 176.889 115.624 175.645 116.484 173.25L119.965 174.501ZM-39.2772 124.169L-22.4082 77.2002L-39.2772 124.169ZM126.834 130.801C131.152 132.352 133.395 137.109 131.844 141.427L119.965 174.501C118.415 178.818 113.657 181.061 109.34 179.511L110.59 176.029C112.985 176.889 115.624 175.645 116.484 173.25L128.988 138.436C130.193 135.079 129.229 131.661 126.834 130.801Z" fill="url(#paint1_linear_146_4704)" mask="url(#path-2-inside-1_146_4704)"/>
<path d="M0.695063 104.108L-3.83877 116.732L-6.01495 115.95L-8.42871 104.874L-11.6765 113.917L-13.8527 113.135L-9.31885 100.512L-7.14267 101.293L-4.7178 112.393L-1.46378 103.333L0.695063 104.108ZM7.63581 118.905L7.01614 120.631L0.314191 118.224L0.933856 116.498L7.63581 118.905ZM5.46359 105.821L0.929765 118.445L-1.24642 117.663L3.28741 105.039L5.46359 105.821ZM8.78105 112.964L8.17073 114.663L2.34445 112.571L2.95477 110.871L8.78105 112.964ZM11.5066 107.991L10.8838 109.725L4.22524 107.334L4.84802 105.6L11.5066 107.991ZM18.6941 110.573L14.1603 123.196L12.0014 122.421L16.5353 109.797L18.6941 110.573ZM22.6563 111.996L22.0335 113.73L11.9849 110.121L12.6077 108.387L22.6563 111.996ZM24.1087 123.569L30.1386 114.683L31.4564 115.156L30.4029 117.627L24.0875 126.762L22.7176 126.27L24.1087 123.569ZM25.7429 113.104L24.2928 123.547L23.4286 126.525L21.972 126.002L23.584 112.329L25.7429 113.104ZM30.8307 125.865L36.3203 116.903L38.4878 117.682L31.0322 129.256L29.5756 128.733L30.8307 125.865ZM31.968 115.34L30.9313 126.048L30.2866 128.988L28.9167 128.496L29.9 117.446L30.6674 114.873L31.968 115.34ZM48.024 127.841L47.7749 128.535C47.4324 129.489 47.0009 130.299 46.4804 130.967C45.9599 131.635 45.373 132.152 44.7196 132.518C44.072 132.885 43.3765 133.096 42.6332 133.149C41.892 133.196 41.1312 133.079 40.3509 132.799C39.5764 132.52 38.9182 132.127 38.3762 131.62C37.8421 131.108 37.4365 130.502 37.1593 129.802C36.8821 129.102 36.7494 128.327 36.7613 127.477C36.7789 126.628 36.959 125.727 37.3015 124.773L37.5506 124.08C37.8931 123.126 38.3265 122.319 38.8507 121.659C39.377 120.993 39.9668 120.477 40.6202 120.112C41.2814 119.742 41.9798 119.533 42.7152 119.484C43.4585 119.431 44.2174 119.544 44.992 119.822C45.7723 120.102 46.4324 120.499 46.9722 121.013C47.5142 121.521 47.9198 122.127 48.1891 122.83C48.4606 123.528 48.5846 124.3 48.5612 125.147C48.5456 125.989 48.3666 126.888 48.024 127.841ZM45.5987 127.753L45.8541 127.042C46.1074 126.337 46.2612 125.691 46.3155 125.104C46.3777 124.512 46.3412 123.987 46.2061 123.527C46.0789 123.064 45.8578 122.671 45.5427 122.349C45.2297 122.022 44.8334 121.772 44.3536 121.599C43.8739 121.427 43.4119 121.369 42.9677 121.425C42.5256 121.475 42.1051 121.637 41.7064 121.911C41.3155 122.182 40.9531 122.564 40.6193 123.058C40.2875 123.545 39.995 124.142 39.7417 124.847L39.4864 125.558C39.2331 126.263 39.0783 126.912 39.0218 127.505C38.9654 128.099 39.0027 128.631 39.1336 129.102C39.2724 129.569 39.4954 129.966 39.8026 130.292C40.1119 130.612 40.5064 130.858 40.9862 131.03C41.4717 131.204 41.9355 131.267 42.3776 131.217C42.8218 131.161 43.2404 130.995 43.6334 130.718C44.0284 130.436 44.39 130.047 44.7181 129.551C45.0519 129.058 45.3455 128.458 45.5987 127.753ZM52.3426 122.658L56.8077 124.261C57.7672 124.606 58.5331 125.044 59.1056 125.576C59.6781 126.108 60.0418 126.722 60.1967 127.417C60.3595 128.108 60.2924 128.867 59.9956 129.694C59.7693 130.324 59.4544 130.837 59.0509 131.234C58.6474 131.631 58.1755 131.918 57.6352 132.096C57.097 132.268 56.5039 132.339 55.8557 132.308L55.0816 132.392L51.0674 130.951L51.6697 129.219L54.6782 130.3C55.1984 130.486 55.6651 130.55 56.0783 130.489C56.4916 130.429 56.842 130.271 57.1296 130.015C57.425 129.756 57.6454 129.424 57.7907 129.019C57.9485 128.58 57.9988 128.167 57.9416 127.781C57.8923 127.392 57.7225 127.047 57.4322 126.747C57.144 126.441 56.7282 126.191 56.1849 125.995L53.896 125.173L49.9849 136.063L47.8088 135.281L52.3426 122.658ZM55.0136 137.869L54.0849 131.134L56.3682 131.944L57.3776 138.591L57.3372 138.704L55.0136 137.869ZM65.7031 127.456L61.1693 140.08L58.9931 139.298L63.527 126.675L65.7031 127.456ZM73.2894 130.181L65.9913 134.421L61.9696 136.462L62.3635 134.166L65.366 132.347L70.6364 129.228L73.2894 130.181ZM66.4147 141.964L64.4103 134.49L66.4427 133.546L68.9984 142.892L66.4147 141.964Z" fill="url(#paint2_linear_146_4704)" fill-opacity="0.7"/>
<g clip-path="url(#clip1_146_4704)">
<path d="M91.2403 143.399C92.2796 143.777 93.4266 143.727 94.429 143.259C95.4313 142.792 96.207 141.946 96.5852 140.906C96.9635 139.867 96.9134 138.72 96.446 137.718C95.9786 136.715 95.1321 135.94 94.0929 135.561C93.0536 135.183 91.9066 135.233 90.9042 135.701C89.9018 136.168 89.1262 137.014 88.7479 138.054C88.3696 139.093 88.4197 140.24 88.8871 141.242C89.3545 142.245 90.201 143.02 91.2403 143.399ZM100.057 146.608C100.837 146.891 101.697 146.854 102.449 146.503C103.201 146.153 103.782 145.518 104.066 144.738C104.35 143.959 104.312 143.099 103.962 142.347C103.611 141.595 102.976 141.013 102.197 140.73C101.417 140.446 100.557 140.484 99.8052 140.834C99.0534 141.185 98.4717 141.82 98.188 142.599C97.9043 143.379 97.9419 144.239 98.2924 144.991C98.643 145.742 99.2778 146.324 100.057 146.608ZM87.0983 144.11C85.7464 143.618 84.2498 144.316 83.7577 145.668C83.7577 145.668 82.1532 150.076 88.0312 152.216C92.6905 153.911 94.6648 151.493 95.2825 150.417C95.4446 150.137 95.5137 149.947 95.5137 149.947C96.0058 148.595 95.3079 147.098 93.956 146.606L87.0983 144.11ZM97.2156 151.343C97.1832 151.42 97.1416 151.509 97.0909 151.612C96.6887 152.381 96.1259 153.054 95.4407 153.586C95.9164 153.894 96.4955 154.187 97.2028 154.444C102.101 156.227 103.349 152.798 103.349 152.798C103.841 151.446 103.143 149.95 101.791 149.458L97.6199 147.94C97.8349 148.812 97.8013 149.752 97.4711 150.659L97.2928 151.149L97.2156 151.343Z" fill="#7A6F6F"/>
</g>
<g filter="url(#filter1_d_146_4704)">
<path d="M171.694 24.8868C170.22 26.3838 168.926 28.056 167.838 29.8533C170.59 32.213 173.064 34.8788 175.215 37.79C175.392 37.6175 175.553 37.4265 175.711 37.2366C177.286 35.3392 178.809 33.3932 180.524 31.6222C178.123 28.8682 175.551 26.3123 172.916 23.7669C172.486 24.1135 172.081 24.4929 171.694 24.8868Z" fill="#633B3D"/>
<path d="M193.974 30.2971C193.937 23.1148 188.765 16.3581 182.629 13.0398C178.632 10.8779 172.011 9.78274 169.56 14.7787C168.086 17.7833 169.663 20.6375 171.883 22.7716C172.228 23.1036 172.572 23.4355 172.916 23.7673C175.551 26.3127 178.123 28.8686 180.524 31.6226C181.101 32.2846 181.672 32.9538 182.228 33.6419C183.973 35.8037 187.297 37.4118 190.075 36.5408C192.583 35.7543 193.987 32.9256 193.974 30.2971Z" fill="#D35C65"/>
<path d="M111.627 25.4333C110.983 24.2334 110.251 23.0804 109.433 21.9914C109.101 21.5496 108.75 21.1196 108.37 20.719C105.42 22.8912 102.531 25.0825 99.7849 27.4927C100.921 29.031 101.929 30.6574 102.934 32.2857C105.555 29.6792 108.472 27.3764 111.627 25.4333Z" fill="#633B3D"/>
<path d="M167.839 29.8545C160.267 23.3615 150.609 19.1708 139.891 18.4549C129.576 17.766 119.807 20.3974 111.628 25.4341C108.473 27.3772 105.557 29.6801 102.935 32.2865C94.9685 40.2063 89.738 50.9447 88.9306 63.0341C87.9837 77.2115 93.3115 90.3566 102.536 99.7603C104.283 101.542 106.169 103.19 108.18 104.685C115.308 109.981 123.99 113.358 133.51 113.994C144.34 114.717 154.567 111.778 162.986 106.239C165.082 104.86 167.065 103.321 168.918 101.636C177.752 93.6004 183.611 82.2712 184.47 69.415C185.256 57.6459 181.716 46.5884 175.215 37.7911C173.064 34.88 170.59 32.2142 167.839 29.8545Z" fill="#D35C65"/>
<path d="M162.457 95.4431C178.648 81.2791 180.292 56.6712 166.128 40.4798C151.964 24.2885 127.356 22.6449 111.165 36.8089C94.9734 50.9729 93.3298 75.5808 107.494 91.7722C121.658 107.964 146.266 109.607 162.457 95.4431Z" fill="#FFC4C9"/>
<path d="M134.674 90.7538L134.607 90.7493C134.165 90.7197 133.779 91.0577 133.749 91.5002L133.225 99.3444C133.196 99.7869 133.533 100.173 133.976 100.203L134.043 100.207C134.485 100.237 134.872 99.8989 134.901 99.4563L135.425 91.6121C135.455 91.1697 135.117 90.7833 134.674 90.7538Z" fill="#633B3D"/>
<path d="M137.923 41.1194L137.99 41.1238C138.433 41.1534 138.819 40.8155 138.848 40.3731L139.372 32.5287C139.402 32.0862 139.064 31.7001 138.621 31.6705L138.554 31.666C138.112 31.6365 137.726 31.9742 137.696 32.4168L137.172 40.2612C137.143 40.7035 137.48 41.0898 137.923 41.1194Z" fill="#633B3D"/>
<path d="M110.735 63.387L102.891 62.8631C102.448 62.8335 102.062 63.1714 102.032 63.6139L102.028 63.6809C101.998 64.1234 102.336 64.5097 102.779 64.5393L110.623 65.0632C111.066 65.0928 111.452 64.7547 111.481 64.3123L111.486 64.2453C111.515 63.8028 111.177 63.4165 110.735 63.387Z" fill="#633B3D"/>
<path d="M161.116 67.5605L161.112 67.6274C161.082 68.07 161.42 68.4562 161.863 68.4858L169.707 69.0097C170.149 69.0393 170.535 68.7013 170.565 68.2588L170.57 68.1919C170.599 67.7493 170.261 67.3631 169.819 67.3335L161.975 66.8096C161.532 66.78 161.146 67.118 161.116 67.5605Z" fill="#633B3D"/>
<path d="M152.76 55.5054C152.694 55.8755 152.621 56.2365 152.589 56.5467C152.483 57.565 152.377 58.5831 152.272 59.6014C152.104 61.2155 154.619 61.381 154.786 59.7693C154.927 58.4117 155.067 57.0541 155.208 55.6965C155.299 54.8211 155.616 53.7141 155.1 52.9129C154.54 52.0427 153.386 52.0122 152.473 51.8467C151.054 51.5897 149.636 51.3325 148.218 51.0754C146.625 50.7866 146.47 53.3031 148.05 53.5895C148.937 53.7503 149.823 53.9109 150.709 54.0717C150.909 54.1079 151.159 54.1323 151.426 54.1582C147.745 57.2266 144.064 60.2951 140.383 63.3635C139.763 62.7661 138.939 62.3746 138.013 62.3128C135.93 62.1737 134.129 63.7493 133.99 65.8322C133.984 65.9165 133.986 65.9995 133.986 66.0828C133.985 66.6738 134.12 67.2362 134.366 67.7388C134.941 68.9153 136.109 69.7618 137.509 69.8553C139.592 69.9945 141.394 68.4188 141.533 66.3359C141.564 65.8688 141.505 65.4176 141.377 64.9943C145.171 61.8314 148.966 58.6685 152.76 55.5054Z" fill="#D35C65"/>
<path d="M117.131 67.4712C117.507 67.1359 117.939 66.7843 118.08 66.6344C118.794 65.8745 119.508 65.1148 120.223 64.3549C121.049 63.4755 119.812 62.0454 118.978 62.9326C117.979 63.9963 116.978 65.06 115.979 66.1239C115.446 66.6907 114.561 67.3706 114.559 68.219C114.557 69.0778 115.391 69.7338 115.91 70.2999L118.796 73.4438C119.618 74.3398 121.043 73.0978 120.219 72.1996C119.6 71.5259 118.982 70.8522 118.363 70.1784C118.241 70.0449 117.748 69.5921 117.301 69.1448C122.99 68.6761 128.678 68.2074 134.366 67.7389C134.12 67.2362 133.986 66.6738 133.986 66.0828C128.368 66.5455 122.75 67.0083 117.131 67.4712Z" fill="#633B3D"/>
<path d="M109.528 19.8698C112.012 18.05 113.955 15.4306 112.893 12.2568C111.128 6.97912 104.42 7.18407 100.171 8.79518C93.6488 11.2681 87.6237 17.2769 86.6321 24.3905C86.2693 26.9939 87.285 29.9842 89.6664 31.0973C92.3035 32.33 95.8124 31.1784 97.8298 29.2678C98.4718 28.6598 99.1264 28.0722 99.7863 27.4929C102.532 25.0827 105.421 22.8913 108.372 20.7192C108.757 20.4359 109.141 20.1529 109.528 19.8698Z" fill="#D35C65"/>
<path d="M111.5 107L101.5 98L91.2329 115.348C90.1628 117.156 92.2478 119.18 94.0233 118.057L111.5 107Z" fill="#D35C65"/>
<path d="M154.299 110L164.299 101L174.566 118.348C175.636 120.156 173.551 122.18 171.776 121.057L154.299 110Z" fill="#D35C65"/>
</g>
<mask id="path-20-inside-2_146_4704" fill="white">
<path d="M129.114 142.833C127.947 139.158 129.979 135.232 133.654 134.064L312.88 77.1148C316.555 75.9471 320.481 77.9796 321.649 81.6547L333.727 119.667C334.895 123.343 332.862 127.268 329.187 128.436L149.962 185.386C146.287 186.553 142.361 184.521 141.193 180.846L129.114 142.833Z"/>
</mask>
<path d="M129.114 142.833C127.947 139.158 129.979 135.232 133.654 134.064L312.88 77.1148C316.555 75.9471 320.481 77.9796 321.649 81.6547L333.727 119.667C334.895 123.343 332.862 127.268 329.187 128.436L149.962 185.386C146.287 186.553 142.361 184.521 141.193 180.846L129.114 142.833Z" fill="url(#paint3_linear_146_4704)"/>
<path d="M127 136.179L319.534 75.0004L127 136.179ZM335.633 119.062C337.136 123.79 334.521 128.84 329.793 130.342L152.474 186.686C147.746 188.188 142.695 185.574 141.193 180.846C142.026 183.468 145.681 184.647 149.356 183.48L328.582 126.53C331.204 125.697 332.654 122.896 331.821 120.273L335.633 119.062ZM143.308 187.5L127 136.179L143.308 187.5ZM312.88 77.1148C317.608 75.6126 322.658 78.2274 324.16 82.9551L335.633 119.062C337.136 123.79 334.521 128.84 329.793 130.342L328.582 126.53C331.204 125.697 332.654 122.896 331.821 120.273L319.742 82.2604C318.575 78.5853 315.502 76.2816 312.88 77.1148Z" fill="url(#paint4_linear_146_4704)" mask="url(#path-20-inside-2_146_4704)"/>
<g clip-path="url(#clip2_146_4704)">
<path d="M164.128 143.666C165.464 142.384 167.096 141.451 168.878 140.95C170.661 140.448 172.539 140.393 174.348 140.79C174.519 140.828 174.679 140.905 174.815 141.015C174.951 141.125 175.06 141.266 175.133 141.426L175.18 141.55L179.618 155.517C179.678 155.706 179.688 155.907 179.645 156.1C179.603 156.293 179.51 156.472 179.377 156.618C179.244 156.764 179.074 156.873 178.885 156.933C178.697 156.993 178.496 157.002 178.303 156.96C176.756 156.62 175.148 156.694 173.639 157.174C172.13 157.653 170.774 158.521 169.707 159.691C169.574 159.837 169.405 159.945 169.216 160.005C169.027 160.065 168.826 160.074 168.633 160.032C167.144 159.705 165.596 159.761 164.134 160.195C162.672 160.629 161.344 161.427 160.274 162.513L159.984 162.818L159.889 162.901L159.841 162.934L159.732 163L159.67 163.031L159.546 163.078L159.501 163.092L159.379 163.117L159.291 163.128L159.165 163.131L159.01 163.113L158.889 163.086L158.77 163.044L158.687 163.004L158.58 162.941L158.481 162.867L158.445 162.836L158.39 162.783L158.308 162.687L158.274 162.64L158.209 162.531L158.177 162.469L158.156 162.417L158.131 162.345L153.693 148.378C153.633 148.189 153.623 147.988 153.666 147.795C153.708 147.602 153.801 147.423 153.934 147.277C155.182 145.909 156.747 144.869 158.492 144.25C160.237 143.631 162.108 143.451 163.939 143.726L164.049 143.743L164.128 143.666Z" fill="url(#paint5_linear_146_4704)" fill-opacity="0.7"/>
</g>
<path d="M194.93 134.901L199.323 148.724L196.94 149.481L192.548 135.658L194.93 134.901ZM203.237 132.261L199.751 140.696L197.635 145.09L196.466 142.858L197.852 139.324L200.332 133.184L203.237 132.261ZM205.066 146.899L198.437 141.793L199.564 139.648L207.896 146L205.066 146.899ZM215.798 128.27L220.19 142.093L217.807 142.85L208.461 134.918L211.608 144.82L209.225 145.577L204.832 131.754L207.215 130.997L216.586 138.942L213.434 129.021L215.798 128.27ZM231.734 130.398L231.975 131.157C232.307 132.201 232.469 133.181 232.46 134.097C232.451 135.013 232.286 135.842 231.965 136.585C231.65 137.326 231.191 137.964 230.587 138.497C229.981 139.024 229.25 139.423 228.396 139.695C227.548 139.964 226.724 140.059 225.925 139.978C225.13 139.889 224.384 139.635 223.687 139.216C222.989 138.796 222.366 138.217 221.818 137.479C221.276 136.738 220.839 135.846 220.507 134.801L220.266 134.042C219.934 132.997 219.776 132.02 219.793 131.108C219.808 130.191 219.977 129.36 220.298 128.617C220.624 127.866 221.086 127.227 221.686 126.702C222.29 126.169 223.016 125.768 223.864 125.498C224.718 125.227 225.546 125.134 226.347 125.221C227.146 125.302 227.893 125.556 228.586 125.984C229.277 126.405 229.891 126.987 230.426 127.73C230.966 128.464 231.402 129.353 231.734 130.398ZM229.592 131.914L229.345 131.136C229.1 130.364 228.808 129.707 228.469 129.167C228.134 128.618 227.758 128.191 227.34 127.885C226.926 127.57 226.479 127.378 225.997 127.308C225.512 127.232 225.008 127.277 224.482 127.444C223.957 127.611 223.522 127.864 223.177 128.204C222.83 128.537 222.575 128.953 222.413 129.45C222.255 129.94 222.194 130.506 222.231 131.149C222.266 131.786 222.407 132.49 222.652 133.263L222.899 134.041C223.145 134.813 223.438 135.473 223.779 136.019C224.12 136.566 224.501 136.999 224.923 137.318C225.349 137.628 225.801 137.823 226.279 137.901C226.755 137.972 227.255 137.925 227.781 137.758C228.312 137.589 228.752 137.338 229.099 137.005C229.444 136.665 229.694 136.248 229.85 135.752C230.004 135.25 230.06 134.679 230.016 134.037C229.979 133.394 229.838 132.686 229.592 131.914ZM238.913 132.726L238.26 121.133L239.703 120.674L240.419 123.488L240.991 135.484L239.491 135.96L238.913 132.726ZM233.447 122.662L239.056 132.586L240.269 135.713L238.674 136.22L231.083 123.413L233.447 122.662ZM246.196 130.286L245.029 118.982L247.402 118.228L248.595 133.067L247 133.574L246.196 130.286ZM240.263 120.496L246.403 130.377L247.779 133.327L246.279 133.803L239.869 123.663L238.839 120.949L240.263 120.496ZM261.619 126.849L262.219 128.738L255.279 130.944L254.679 129.054L261.619 126.849ZM251.551 116.909L255.943 130.732L253.561 131.49L249.168 117.667L251.551 116.909ZM272.508 123.389L273.108 125.278L265.77 127.61L265.169 125.721L272.508 123.389ZM262.051 113.573L266.444 127.396L264.061 128.153L259.668 114.33L262.051 113.573ZM269.591 117.532L270.182 119.393L263.803 121.42L263.211 119.559L269.591 117.532ZM268.668 111.47L269.272 113.369L261.981 115.686L261.377 113.787L268.668 111.47ZM279.07 123.384L276.118 124.322L275.536 122.427L278.47 121.494C279.324 121.223 279.98 120.809 280.438 120.253C280.901 119.694 281.168 119.021 281.238 118.232C281.314 117.441 281.199 116.565 280.894 115.603L280.655 114.853C280.418 114.106 280.122 113.472 279.769 112.95C279.421 112.426 279.02 112.021 278.567 111.733C278.119 111.443 277.626 111.272 277.087 111.22C276.554 111.167 275.981 111.237 275.367 111.432L272.272 112.416L271.668 110.517L274.763 109.534C275.681 109.242 276.569 109.131 277.427 109.199C278.283 109.262 279.078 109.494 279.812 109.895C280.552 110.294 281.198 110.848 281.751 111.557C282.304 112.266 282.738 113.118 283.054 114.111L283.286 114.842C283.602 115.836 283.739 116.782 283.697 117.681C283.655 118.579 283.447 119.404 283.073 120.157C282.697 120.904 282.172 121.555 281.498 122.111C280.829 122.658 280.02 123.082 279.07 123.384ZM273.045 110.08L277.437 123.903L275.054 124.66L270.662 110.837L273.045 110.08ZM296.127 110.187L297.804 115.466C297.69 115.788 297.474 116.17 297.155 116.613C296.84 117.048 296.376 117.484 295.763 117.923C295.149 118.362 294.333 118.743 293.314 119.067C292.447 119.342 291.607 119.449 290.793 119.387C289.977 119.319 289.215 119.084 288.509 118.681C287.809 118.276 287.187 117.711 286.643 116.985C286.096 116.253 285.656 115.361 285.323 114.31L285.018 113.352C284.686 112.307 284.52 111.336 284.52 110.437C284.525 109.529 284.683 108.713 284.996 107.986C285.308 107.26 285.767 106.64 286.37 106.128C286.978 105.607 287.725 105.206 288.611 104.924C289.744 104.564 290.741 104.457 291.603 104.601C292.468 104.737 293.209 105.073 293.825 105.609C294.441 106.145 294.939 106.823 295.318 107.643L292.983 108.385C292.754 107.928 292.468 107.545 292.126 107.236C291.79 106.925 291.386 106.726 290.912 106.639C290.443 106.544 289.889 106.598 289.25 106.802C288.699 106.977 288.248 107.235 287.897 107.576C287.545 107.918 287.295 108.336 287.145 108.829C287.002 109.321 286.953 109.88 286.999 110.506C287.044 111.133 287.186 111.819 287.423 112.566L287.734 113.544C287.975 114.304 288.269 114.953 288.614 115.491C288.965 116.027 289.357 116.45 289.79 116.758C290.229 117.065 290.703 117.252 291.212 117.32C291.72 117.382 292.252 117.324 292.809 117.147C293.353 116.974 293.785 116.788 294.105 116.589C294.423 116.383 294.663 116.185 294.826 115.994C294.992 115.795 295.113 115.617 295.189 115.461L294.317 112.717L291.441 113.631L290.877 111.856L296.127 110.187ZM309.458 111.648L310.058 113.537L302.719 115.869L302.119 113.98L309.458 111.648ZM299.001 101.832L303.393 115.655L301.01 116.412L296.618 102.589L299.001 101.832ZM306.541 105.791L307.132 107.652L300.752 109.679L300.161 107.819L306.541 105.791ZM305.618 99.7295L306.221 101.628L298.93 103.945L298.327 102.046L305.618 99.7295Z" fill="url(#paint6_linear_146_4704)" fill-opacity="0.7"/>
<mask id="path-24-inside-3_146_4704" fill="white">
<path d="M15.6386 163.834C16.4293 160.06 20.1299 157.641 23.9041 158.432L154.268 185.744C158.043 186.535 160.461 190.236 159.671 194.01L151.463 233.184C150.672 236.958 146.972 239.377 143.198 238.586L12.8333 211.273C9.05909 210.483 6.64051 206.782 7.43124 203.008L15.6386 163.834Z"/>
</mask>
<path d="M15.6386 163.834C16.4293 160.06 20.1299 157.641 23.9041 158.432L154.268 185.744C158.043 186.535 160.461 190.236 159.671 194.01L151.463 233.184C150.672 236.958 146.972 239.377 143.198 238.586L12.8333 211.273C9.05909 210.483 6.64051 206.782 7.43124 203.008L15.6386 163.834Z" fill="url(#paint7_linear_146_4704)"/>
<path d="M17.0703 157L161.102 187.176L17.0703 157ZM153.421 233.594C152.403 238.449 147.643 241.561 142.788 240.543L14.3807 213.641C9.52538 212.624 6.41401 207.863 7.43124 203.008C6.86701 205.701 9.4692 208.525 13.2434 209.316L143.608 236.628C146.301 237.193 148.941 235.467 149.506 232.774L153.421 233.594ZM5.99949 209.842L17.0703 157L5.99949 209.842ZM154.268 185.744C159.124 186.762 162.235 191.522 161.218 196.377L153.421 233.594C152.403 238.449 147.643 241.561 142.788 240.543L143.608 236.628C146.301 237.193 148.941 235.467 149.506 232.774L157.713 193.6C158.504 189.826 156.962 186.309 154.268 185.744Z" fill="url(#paint8_linear_146_4704)" mask="url(#path-24-inside-3_146_4704)"/>
<path d="M39.6552 192.579C39.7165 192.286 39.7255 192.017 39.6821 191.77C39.6453 191.525 39.5361 191.285 39.3546 191.05C39.1731 190.815 38.8993 190.568 38.533 190.308C38.1747 190.043 37.7065 189.752 37.1285 189.434C36.4961 189.084 35.9204 188.723 35.4016 188.349C34.8905 187.971 34.4592 187.568 34.1075 187.142C33.7572 186.709 33.5113 186.247 33.3699 185.756C33.2299 185.258 33.2212 184.717 33.3437 184.132C33.4649 183.554 33.6955 183.052 34.0354 182.628C34.3818 182.205 34.8153 181.869 35.336 181.618C35.8645 181.363 36.4573 181.205 37.1143 181.146C37.7726 181.08 38.4755 181.126 39.223 181.283C40.276 181.503 41.1419 181.888 41.8206 182.437C42.5059 182.988 42.9845 183.635 43.2565 184.377C43.5349 185.121 43.5911 185.889 43.425 186.682L40.9973 186.173C41.0953 185.705 41.081 185.271 40.9544 184.872C40.8357 184.467 40.5966 184.118 40.2372 183.826C39.8843 183.535 39.4023 183.325 38.7914 183.197C38.2129 183.076 37.7135 183.063 37.2932 183.158C36.873 183.253 36.5373 183.431 36.2861 183.69C36.035 183.95 35.8699 184.268 35.7909 184.645C35.7351 184.911 35.7458 185.168 35.823 185.415C35.9015 185.655 36.0478 185.896 36.2618 186.138C36.4772 186.373 36.7596 186.612 37.109 186.855C37.4585 187.098 37.8776 187.348 38.3662 187.607C39.1037 188.005 39.735 188.409 40.26 188.818C40.7865 189.22 41.2072 189.64 41.5223 190.08C41.8374 190.519 42.0448 190.986 42.1445 191.482C42.2455 191.971 42.2361 192.502 42.1163 193.074C41.991 193.672 41.7577 194.186 41.4164 194.617C41.0765 195.041 40.6469 195.375 40.1276 195.619C39.6162 195.858 39.0294 196.003 38.3673 196.054C37.713 196.101 37.0056 196.044 36.2452 195.885C35.5627 195.742 34.909 195.51 34.2841 195.189C33.6658 194.869 33.1257 194.468 32.6638 193.984C32.2033 193.494 31.8723 192.936 31.671 192.311C31.4709 191.678 31.4499 190.985 31.6079 190.231L34.0551 190.744C33.9584 191.205 33.954 191.615 34.0419 191.973C34.1363 192.332 34.3047 192.645 34.5472 192.913C34.7909 193.175 35.0911 193.394 35.4477 193.57C35.8107 193.748 36.21 193.882 36.6455 193.974C37.2175 194.093 37.7123 194.112 38.1298 194.03C38.5538 193.949 38.894 193.783 39.1503 193.532C39.4066 193.28 39.5749 192.962 39.6552 192.579ZM48.932 183.52L45.9578 197.716L43.5106 197.203L46.4848 183.007L48.932 183.52ZM57.4631 185.308L50.2788 190.937L46.2756 193.722L46.3553 191.204L49.2999 188.808L54.4796 184.682L57.4631 185.308ZM51.8565 198.952L48.5958 191.246L50.6318 189.932L54.7619 199.56L51.8565 198.952ZM61.714 186.198L58.7399 200.394L56.2927 199.881L59.2668 185.685L61.714 186.198ZM71.0801 200.954L70.6737 202.894L63.5465 201.401L63.953 199.461L71.0801 200.954ZM67.2032 187.348L64.229 201.544L61.7818 201.031L64.756 186.835L67.2032 187.348ZM81.8635 203.213L81.457 205.153L74.3298 203.66L74.7363 201.72L81.8635 203.213ZM77.9865 189.607L75.0123 203.803L72.5651 203.29L75.5393 189.095L77.9865 189.607ZM91.5828 203.458C91.6441 203.166 91.6531 202.896 91.6097 202.65C91.5729 202.404 91.4637 202.164 91.2822 201.93C91.1007 201.695 90.8268 201.447 90.4606 201.187C90.1023 200.922 89.6341 200.631 89.0561 200.313C88.4237 199.963 87.848 199.602 87.3291 199.229C86.8181 198.85 86.3868 198.448 86.0351 198.021C85.6848 197.588 85.4389 197.126 85.2975 196.635C85.1575 196.138 85.1488 195.596 85.2713 195.011C85.3925 194.433 85.6231 193.932 85.963 193.507C86.3094 193.085 86.7429 192.748 87.2636 192.498C87.7921 192.242 88.3849 192.085 89.0419 192.025C89.7002 191.96 90.4031 192.005 91.1506 192.162C92.2036 192.382 93.0695 192.767 93.7482 193.317C94.4335 193.867 94.9121 194.514 95.1841 195.256C95.4625 196 95.5187 196.768 95.3526 197.561L92.9248 197.053C93.0229 196.585 93.0086 196.151 92.882 195.751C92.7633 195.346 92.5242 194.997 92.1648 194.705C91.8119 194.414 91.3299 194.204 90.7189 194.076C90.1404 193.955 89.6411 193.942 89.2208 194.037C88.8006 194.133 88.4649 194.31 88.2137 194.569C87.9626 194.829 87.7975 195.147 87.7185 195.524C87.6627 195.791 87.6734 196.047 87.7506 196.294C87.8291 196.535 87.9754 196.775 88.1894 197.017C88.4048 197.252 88.6872 197.491 89.0366 197.734C89.3861 197.977 89.8051 198.228 90.2938 198.486C91.0313 198.885 91.6625 199.288 92.1876 199.697C92.714 200.099 93.1348 200.52 93.4499 200.959C93.765 201.398 93.9724 201.866 94.0721 202.361C94.1731 202.851 94.1637 203.381 94.0438 203.953C93.9186 204.551 93.6853 205.066 93.344 205.496C93.0041 205.92 92.5745 206.254 92.0552 206.499C91.5438 206.737 90.957 206.882 90.2949 206.934C89.6406 206.98 88.9332 206.923 88.1727 206.764C87.4903 206.621 86.8366 206.389 86.2117 206.068C85.5934 205.749 85.0533 205.347 84.5914 204.864C84.1309 204.373 83.7999 203.816 83.5986 203.19C83.3985 202.558 83.3775 201.865 83.5355 201.111L85.9827 201.623C85.886 202.085 85.8816 202.494 85.9695 202.852C86.0639 203.211 86.2323 203.525 86.4748 203.792C86.7185 204.054 87.0187 204.273 87.3753 204.449C87.7383 204.627 88.1376 204.762 88.5731 204.853C89.1451 204.973 89.6399 204.992 90.0574 204.909C90.4814 204.829 90.8216 204.662 91.0779 204.411C91.3342 204.159 91.5025 203.842 91.5828 203.458Z" fill="url(#paint9_linear_146_4704)" fill-opacity="0.7"/>
<g clip-path="url(#clip3_146_4704)">
<path d="M134.625 202.807C134.577 203.974 134.248 205.112 133.666 206.124C133.084 207.136 132.266 207.993 131.282 208.621C130.298 209.249 129.177 209.631 128.014 209.733C126.851 209.835 125.68 209.655 124.602 209.208C123.879 208.909 123.189 208.914 122.72 209.218L115.266 214.034C114.573 214.457 113.743 214.593 112.951 214.413C112.16 214.232 111.471 213.75 111.03 213.068C110.59 212.386 110.433 211.559 110.593 210.764C110.754 209.968 111.219 209.267 111.889 208.809L119.342 203.993C119.811 203.69 120.101 203.061 120.125 202.281C120.161 201.115 120.478 199.974 121.049 198.955C121.62 197.937 122.428 197.072 123.405 196.433C124.382 195.794 125.499 195.4 126.66 195.285C127.822 195.17 128.994 195.337 130.077 195.772C130.393 195.894 130.665 196.108 130.857 196.387C131.05 196.666 131.153 196.996 131.155 197.334C131.163 197.959 130.843 198.573 130.271 198.943L126.865 201.145C126.817 201.178 126.784 201.227 126.772 201.282C126.76 201.338 126.77 201.397 126.8 201.445L128.105 203.465C128.137 203.512 128.186 203.545 128.242 203.557C128.298 203.569 128.356 203.559 128.405 203.529L131.812 201.329C132.08 201.152 132.389 201.047 132.708 201.021C133.028 200.996 133.35 201.052 133.642 201.184C134.229 201.456 134.655 202.048 134.625 202.807Z" fill="#7A6F6F"/>
</g>
<mask id="path-28-inside-4_146_4704" fill="white">
<path d="M-35.062 219.69C-34.8616 216.962 -32.4873 214.912 -29.7588 215.113L77.7828 223.009C80.5113 223.209 82.5608 225.584 82.3604 228.312L80.2694 256.79C80.0691 259.519 77.6948 261.568 74.9663 261.368L-32.5753 253.471C-35.3038 253.271 -37.3533 250.897 -37.153 248.168L-35.062 219.69Z"/>
</mask>
<path d="M-35.062 219.69C-34.8616 216.962 -32.4873 214.912 -29.7588 215.113L77.7828 223.009C80.5113 223.209 82.5608 225.584 82.3604 228.312L80.2694 256.79C80.0691 259.519 77.6948 261.568 74.9663 261.368L-32.5753 253.471C-35.3038 253.271 -37.3533 250.897 -37.153 248.168L-35.062 219.69Z" fill="url(#paint10_linear_146_4704)"/>
<path d="M-34.6992 214.75L82.7232 223.372L-34.6992 214.75ZM81.6846 256.894C81.4269 260.404 78.3725 263.041 74.8624 262.783L-31.2641 254.99C-34.7742 254.733 -37.4107 251.678 -37.153 248.168C-37.2959 250.115 -35.1999 251.856 -32.4714 252.056L75.0702 259.952C77.0172 260.095 78.7113 258.633 78.8543 256.686L81.6846 256.894ZM-37.5157 253.109L-34.6992 214.75L-37.5157 253.109ZM77.7828 223.009C81.2929 223.267 83.9294 226.321 83.6717 229.831L81.6846 256.894C81.4269 260.404 78.3725 263.041 74.8624 262.783L75.0702 259.952C77.0172 260.095 78.7113 258.633 78.8543 256.686L80.9453 228.208C81.1456 225.48 79.7297 223.152 77.7828 223.009Z" fill="url(#paint11_linear_146_4704)" mask="url(#path-28-inside-4_146_4704)"/>
<path d="M-16.8959 236.102L-19.5673 235.906L-19.4643 234.503L-16.7929 234.699C-16.3277 234.733 -15.9463 234.686 -15.6486 234.556C-15.3509 234.427 -15.1267 234.236 -14.9758 233.982C-14.8198 233.724 -14.7293 233.424 -14.7041 233.081C-14.6803 232.757 -14.7262 232.449 -14.8417 232.157C-14.9523 231.86 -15.1445 231.615 -15.4183 231.42C-15.6922 231.225 -16.0617 231.11 -16.5269 231.076L-18.6556 230.92L-19.3056 239.773L-21.0748 239.643L-20.3212 229.38L-16.4234 229.667C-15.6293 229.725 -14.9653 229.915 -14.4316 230.238C-13.8927 230.556 -13.4958 230.973 -13.2407 231.488C-12.9852 231.998 -12.8806 232.568 -12.9268 233.197C-12.9755 233.86 -13.1629 234.418 -13.4891 234.871C-13.8153 235.324 -14.2673 235.657 -14.8451 235.87C-15.4182 236.083 -16.1018 236.16 -16.8959 236.102ZM-8.27711 231.639L-11.9963 240.309L-13.8501 240.173L-9.23398 230.194L-8.04983 230.281L-8.27711 231.639ZM-6.3646 240.723L-8.7846 231.602L-8.81812 230.225L-7.62693 230.312L-4.5038 240.86L-6.3646 240.723ZM-6.23314 236.906L-6.33613 238.309L-11.9185 237.899L-11.8155 236.496L-6.23314 236.906ZM2.23831 238.697C2.25384 238.486 2.23475 238.295 2.18104 238.126C2.13203 237.957 2.03264 237.799 1.88288 237.651C1.73312 237.503 1.51723 237.355 1.23521 237.206C0.958232 237.054 0.601545 236.893 0.165147 236.724C-0.312506 236.538 -0.75136 236.338 -1.15141 236.124C-1.54643 235.906 -1.88768 235.664 -2.17517 235.397C-2.46232 235.125 -2.67874 234.824 -2.82444 234.492C-2.9698 234.155 -3.02695 233.775 -2.9959 233.352C-2.96519 232.934 -2.85032 232.56 -2.65127 232.23C-2.44752 231.9 -2.17439 231.622 -1.83187 231.397C-1.48431 231.167 -1.08232 231.001 -0.625916 230.897C-0.169161 230.789 0.329407 230.755 0.86979 230.795C1.63103 230.85 2.27618 231.04 2.80526 231.362C3.33904 231.685 3.73652 232.094 3.99771 232.59C4.2636 233.087 4.3755 233.622 4.33341 234.195L2.57833 234.066C2.60318 233.728 2.55225 233.424 2.42556 233.155C2.30391 232.882 2.10294 232.659 1.82264 232.487C1.54705 232.316 1.18839 232.214 0.74669 232.182C0.328481 232.151 -0.0239019 232.189 -0.310458 232.295C-0.597013 232.402 -0.816362 232.558 -0.968504 232.764C-1.12065 232.97 -1.20672 233.21 -1.22673 233.482C-1.24088 233.675 -1.20918 233.854 -1.13163 234.021C-1.05373 234.182 -0.928158 234.338 -0.754903 234.488C-0.581304 234.633 -0.360197 234.774 -0.0915821 234.912C0.177032 235.05 0.495331 235.187 0.863314 235.322C1.41947 235.533 1.90141 235.758 2.30914 235.995C2.71721 236.229 3.05273 236.485 3.31569 236.764C3.57865 237.043 3.76855 237.352 3.88536 237.691C4.00253 238.026 4.04593 238.4 4.01556 238.814C3.98382 239.246 3.86825 239.63 3.66886 239.964C3.46981 240.295 3.1992 240.57 2.85703 240.791C2.5199 241.007 2.12096 241.164 1.66019 241.263C1.20447 241.357 0.701724 241.384 0.151943 241.343C-0.34145 241.307 -0.822965 241.205 -1.2926 241.039C-1.75754 240.872 -2.17518 240.641 -2.54553 240.344C-2.91553 240.043 -3.20082 239.682 -3.4014 239.261C-3.60164 238.835 -3.68174 238.35 -3.64172 237.805L-1.87255 237.935C-1.89705 238.268 -1.86153 238.557 -1.76601 238.8C-1.66579 239.044 -1.51782 239.248 -1.3221 239.414C-1.12604 239.575 -0.89433 239.7 -0.626965 239.791C-0.3549 239.882 -0.0614517 239.939 0.25338 239.962C0.666891 239.992 1.01658 239.959 1.30244 239.862C1.59301 239.765 1.81654 239.616 1.97303 239.415C2.12953 239.214 2.21796 238.974 2.23831 238.697ZM10.9784 239.339C10.9939 239.128 10.9749 238.937 10.9211 238.768C10.8721 238.599 10.7728 238.44 10.623 238.292C10.4732 238.144 10.2573 237.996 9.97532 237.848C9.69834 237.695 9.34165 237.535 8.90526 237.366C8.4276 237.179 7.98875 236.979 7.58869 236.766C7.19368 236.548 6.85243 236.305 6.56494 236.039C6.27779 235.767 6.06137 235.465 5.91567 235.133C5.77031 234.797 5.71316 234.417 5.74421 233.994C5.77492 233.576 5.88979 233.202 6.08884 232.871C6.29259 232.542 6.56572 232.264 6.90824 232.039C7.2558 231.809 7.65778 231.643 8.11419 231.539C8.57095 231.431 9.06952 231.397 9.6099 231.436C10.3711 231.492 11.0163 231.681 11.5454 232.004C12.0792 232.326 12.4766 232.736 12.7378 233.232C13.0037 233.729 13.1156 234.264 13.0735 234.837L11.3184 234.708C11.3433 234.37 11.2924 234.066 11.1657 233.797C11.044 233.523 10.843 233.301 10.5628 233.129C10.2872 232.958 9.9285 232.856 9.4868 232.823C9.06859 232.793 8.71621 232.831 8.42965 232.937C8.1431 233.044 7.92375 233.2 7.77161 233.406C7.61946 233.612 7.53339 233.852 7.51338 234.124C7.49923 234.317 7.53093 234.496 7.60848 234.663C7.68638 234.824 7.81195 234.98 7.98521 235.13C8.15881 235.275 8.37991 235.416 8.64853 235.554C8.91714 235.692 9.23544 235.828 9.60342 235.964C10.1596 236.175 10.6415 236.399 11.0492 236.637C11.4573 236.87 11.7928 237.126 12.0558 237.406C12.3188 237.685 12.5087 237.994 12.6255 238.333C12.7426 238.668 12.786 239.042 12.7557 239.455C12.7239 239.888 12.6084 240.271 12.409 240.606C12.2099 240.936 11.9393 241.212 11.5971 241.432C11.26 241.649 10.8611 241.806 10.4003 241.904C9.94458 241.998 9.44183 242.025 8.89205 241.985C8.39866 241.949 7.91714 241.847 7.44751 241.68C6.98257 241.514 6.56493 241.283 6.19458 240.986C5.82458 240.685 5.53928 240.324 5.33871 239.903C5.13847 239.477 5.05837 238.992 5.09839 238.447L6.86756 238.577C6.84306 238.91 6.87858 239.199 6.9741 239.442C7.07432 239.685 7.22229 239.89 7.41801 240.056C7.61407 240.216 7.84578 240.342 8.11314 240.433C8.38521 240.523 8.67866 240.58 8.99349 240.603C9.407 240.634 9.75669 240.6 10.0426 240.503C10.3331 240.407 10.5566 240.258 10.7131 240.057C10.8696 239.855 10.9581 239.616 10.9784 239.339ZM16.7678 232.104L16.0143 242.366L14.2451 242.236L14.9987 231.974L16.7678 232.104ZM26.7942 237.715L26.7528 238.279C26.6959 239.055 26.5438 239.743 26.2965 240.343C26.0493 240.944 25.7218 241.447 25.3141 241.851C24.9112 242.256 24.4404 242.555 23.902 242.747C23.3638 242.934 22.7775 243.005 22.1432 242.958C21.5135 242.912 20.9462 242.757 20.4412 242.493C19.9412 242.225 19.5167 241.86 19.1679 241.4C18.819 240.94 18.5614 240.394 18.3952 239.763C18.2336 239.132 18.1813 238.429 18.2382 237.654L18.2796 237.09C18.3366 236.315 18.4908 235.629 18.7424 235.034C18.9944 234.433 19.3242 233.931 19.7319 233.526C20.1446 233.117 20.6176 232.819 21.1511 232.631C21.6896 232.439 22.2737 232.366 22.9033 232.412C23.5377 232.459 24.1072 232.617 24.6119 232.885C25.1169 233.149 25.5413 233.513 25.8852 233.978C26.2294 234.438 26.4799 234.983 26.6367 235.613C26.7986 236.239 26.8511 236.94 26.7942 237.715ZM24.9836 238.149L25.0261 237.571C25.0681 236.998 25.0489 236.489 24.9682 236.043C24.8925 235.594 24.7575 235.213 24.5631 234.901C24.3737 234.585 24.1295 234.34 23.8304 234.167C23.5316 233.989 23.1872 233.886 22.7972 233.857C22.4072 233.829 22.0538 233.881 21.737 234.013C21.4205 234.141 21.1431 234.348 20.9049 234.633C20.6717 234.913 20.4825 235.27 20.3373 235.703C20.1925 236.132 20.099 236.633 20.0569 237.206L20.0144 237.784C19.9723 238.358 19.9915 238.869 20.0718 239.319C20.1522 239.769 20.2892 240.155 20.4829 240.476C20.6817 240.793 20.9281 241.04 21.2222 241.218C21.5165 241.391 21.8587 241.491 22.2488 241.52C22.6435 241.549 22.9991 241.5 23.3155 241.372C23.6324 241.239 23.9075 241.03 24.1411 240.745C24.375 240.455 24.5622 240.093 24.7027 239.659C24.8479 239.226 24.9415 238.723 24.9836 238.149ZM37.0604 233.594L36.3069 243.856L34.5377 243.726L30.4748 236.037L29.9351 243.388L28.1659 243.258L28.9194 232.996L30.6886 233.126L34.7645 240.83L35.3053 233.465L37.0604 233.594Z" fill="url(#paint12_linear_146_4704)" fill-opacity="0.7"/>
<path d="M49.2806 237.699C49.0481 241.581 52.1336 243.842 54.3715 245.835C55.1611 246.538 55.9226 247.201 56.721 247.249C57.5194 247.297 58.3546 246.73 59.2225 246.125C61.683 244.415 65.0157 242.538 65.2482 238.656C65.4808 234.774 61.2547 231.756 57.4384 235.274C54.0693 231.326 49.5132 233.816 49.2806 237.699Z" fill="#7A6F6F"/>
<mask id="path-32-inside-5_146_4704" fill="white">
<path d="M176.011 179.727C176.095 176.564 178.726 174.067 181.889 174.151L283.091 176.813C286.254 176.896 288.751 179.528 288.668 182.691L287.807 215.413C287.723 218.576 285.092 221.073 281.929 220.99L180.727 218.327C177.564 218.244 175.067 215.613 175.151 212.45L176.011 179.727Z"/>
</mask>
<path d="M176.011 179.727C176.095 176.564 178.726 174.067 181.889 174.151L283.091 176.813C286.254 176.896 288.751 179.528 288.668 182.691L287.807 215.413C287.723 218.576 285.092 221.073 281.929 220.99L180.727 218.327C177.564 218.244 175.067 215.613 175.151 212.45L176.011 179.727Z" fill="url(#paint13_linear_146_4704)"/>
<path d="M176.162 174L288.818 176.964L176.162 174ZM289.447 215.457C289.34 219.526 285.955 222.737 281.886 222.63L182.324 220.011C178.255 219.904 175.044 216.519 175.151 212.45C175.091 214.707 177.607 216.604 180.77 216.687L281.972 219.349C284.229 219.409 286.107 217.627 286.166 215.37L289.447 215.457ZM175 218.177L176.162 174L175 218.177ZM283.091 176.813C287.16 176.92 290.372 180.306 290.265 184.375L289.447 215.457C289.34 219.526 285.955 222.737 281.886 222.63L281.972 219.349C284.229 219.409 286.107 217.627 286.166 215.37L287.027 182.648C287.11 179.485 285.348 176.872 283.091 176.813Z" fill="url(#paint14_linear_146_4704)" mask="url(#path-32-inside-5_146_4704)"/>
<path d="M200.147 187.016C198.43 186.972 196.766 187.611 195.52 188.793C194.275 189.975 193.55 191.604 193.505 193.321C193.448 195.522 194.498 197.483 196.141 198.701L196.087 200.791C196.08 201.036 196.172 201.274 196.341 201.452C196.509 201.63 196.742 201.733 196.987 201.74L202.536 201.884C202.781 201.89 203.019 201.799 203.197 201.63C203.374 201.461 203.478 201.229 203.484 200.983L203.539 198.894C205.243 197.763 206.394 195.859 206.451 193.658C206.496 191.941 205.857 190.277 204.674 189.032C203.492 187.786 201.864 187.061 200.147 187.016ZM196.915 204.514C196.909 204.759 197 204.997 197.169 205.175C197.338 205.352 197.571 205.456 197.816 205.462L201.515 205.559C201.76 205.565 201.998 205.474 202.176 205.305C202.353 205.136 202.457 204.903 202.463 204.658L202.487 203.733L196.939 203.589L196.915 204.514Z" fill="#7A6F6F"/>
<path d="M228.725 191.118L228.412 203.015L226.361 202.961L226.674 191.064L228.725 191.118ZM234.418 203.173L231.876 203.106L231.936 201.48L234.46 201.547C235.196 201.566 235.816 201.421 236.32 201.113C236.829 200.805 237.217 200.354 237.484 199.762C237.755 199.169 237.902 198.459 237.924 197.631L237.941 196.986C237.958 196.343 237.899 195.772 237.765 195.272C237.637 194.773 237.435 194.35 237.161 194.005C236.892 193.66 236.555 193.395 236.151 193.21C235.753 193.025 235.289 192.926 234.761 192.912L232.097 192.842L232.14 191.207L234.804 191.278C235.594 191.298 236.312 191.451 236.959 191.735C237.606 192.014 238.16 192.407 238.62 192.915C239.087 193.423 239.439 194.027 239.677 194.725C239.914 195.424 240.022 196.201 240 197.056L239.983 197.685C239.961 198.541 239.812 199.311 239.538 199.996C239.264 200.681 238.88 201.265 238.388 201.748C237.896 202.226 237.314 202.589 236.642 202.839C235.976 203.083 235.235 203.194 234.418 203.173ZM233.325 191.239L233.012 203.136L230.961 203.082L231.274 191.185L233.325 191.239ZM249.724 201.948L249.681 203.574L243.365 203.408L243.408 201.782L249.724 201.948ZM244.258 191.526L243.945 203.423L241.894 203.369L242.207 191.472L244.258 191.526ZM249.038 196.623L248.996 198.225L243.505 198.08L243.547 196.479L249.038 196.623ZM249.953 191.676L249.91 193.31L243.635 193.145L243.678 191.511L249.953 191.676ZM256.26 193.428L252.435 203.647L250.286 203.59L255.076 191.811L256.449 191.847L256.26 193.428ZM258.963 203.818L255.672 193.413L255.558 191.824L256.939 191.86L261.12 203.875L258.963 203.818ZM258.908 199.401L258.865 201.028L252.394 200.857L252.436 199.231L258.908 199.401ZM268.792 201.011C268.798 200.766 268.766 200.547 268.695 200.354C268.629 200.161 268.505 199.984 268.324 199.821C268.143 199.658 267.886 199.499 267.552 199.343C267.224 199.181 266.803 199.015 266.29 198.843C265.728 198.654 265.21 198.447 264.736 198.222C264.268 197.992 263.86 197.73 263.514 197.438C263.167 197.14 262.901 196.803 262.715 196.427C262.528 196.046 262.442 195.611 262.455 195.12C262.467 194.635 262.58 194.197 262.792 193.805C263.009 193.412 263.31 193.077 263.693 192.798C264.082 192.514 264.537 192.3 265.059 192.155C265.581 192.005 266.155 191.939 266.781 191.955C267.664 191.979 268.42 192.162 269.048 192.506C269.682 192.849 270.164 193.301 270.493 193.86C270.827 194.419 270.985 195.031 270.968 195.696L268.933 195.642C268.943 195.25 268.868 194.902 268.707 194.598C268.552 194.289 268.307 194.042 267.974 193.859C267.647 193.676 267.227 193.578 266.715 193.564C266.23 193.552 265.825 193.615 265.5 193.753C265.174 193.892 264.929 194.084 264.765 194.331C264.6 194.577 264.514 194.858 264.505 195.174C264.5 195.398 264.546 195.603 264.645 195.791C264.743 195.974 264.897 196.147 265.105 196.31C265.314 196.468 265.577 196.62 265.895 196.764C266.212 196.909 266.588 197.05 267.02 197.186C267.674 197.4 268.243 197.633 268.727 197.885C269.211 198.133 269.613 198.41 269.931 198.718C270.25 199.027 270.487 199.374 270.64 199.759C270.794 200.139 270.864 200.569 270.851 201.048C270.838 201.55 270.726 201.999 270.513 202.397C270.301 202.789 270.004 203.122 269.62 203.396C269.243 203.664 268.79 203.867 268.263 204.006C267.742 204.139 267.163 204.198 266.525 204.181C265.953 204.166 265.392 204.075 264.84 203.908C264.294 203.741 263.799 203.496 263.355 203.173C262.911 202.846 262.562 202.444 262.307 201.968C262.053 201.488 261.934 200.931 261.95 200.299L264.001 200.353C263.991 200.74 264.048 201.071 264.171 201.347C264.3 201.623 264.482 201.851 264.718 202.032C264.953 202.207 265.227 202.34 265.541 202.43C265.86 202.52 266.202 202.57 266.567 202.579C267.047 202.592 267.449 202.534 267.774 202.407C268.104 202.279 268.354 202.095 268.524 201.854C268.694 201.613 268.783 201.332 268.792 201.011Z" fill="url(#paint15_linear_146_4704)" fill-opacity="0.7"/>
<mask id="path-36-inside-6_146_4704" fill="white">
<path d="M79.6033 250.92C79.2281 248.096 81.2132 245.502 84.0374 245.127L276.148 219.598C278.972 219.223 281.565 221.208 281.941 224.032L285.856 253.499C286.231 256.323 284.246 258.916 281.422 259.292L89.312 284.82C86.4878 285.195 83.8942 283.21 83.5189 280.386L79.6033 250.92Z"/>
</mask>
<path d="M79.6033 250.92C79.2281 248.096 81.2132 245.502 84.0374 245.127L276.148 219.598C278.972 219.223 281.565 221.208 281.941 224.032L285.856 253.499C286.231 256.323 284.246 258.916 281.422 259.292L89.312 284.82C86.4878 285.195 83.8942 283.21 83.5189 280.386L79.6033 250.92Z" fill="url(#paint16_linear_146_4704)"/>
<path d="M78.9238 245.806L281.261 218.919L78.9238 245.806ZM287.321 253.304C287.804 256.937 285.25 260.274 281.617 260.756L90.9714 286.09C87.3383 286.573 84.0017 284.019 83.5189 280.386C83.7867 282.401 86.2932 283.731 89.1173 283.355L281.228 257.827C283.243 257.559 284.659 255.708 284.391 253.693L287.321 253.304ZM84.1984 285.5L78.9238 245.806L84.1984 285.5ZM276.148 219.598C279.781 219.116 283.117 221.669 283.6 225.302L287.321 253.304C287.804 256.937 285.25 260.274 281.617 260.756L281.228 257.827C283.243 257.559 284.659 255.708 284.391 253.693L280.476 224.227C280.101 221.403 278.163 219.331 276.148 219.598Z" fill="url(#paint17_linear_146_4704)" mask="url(#path-36-inside-6_146_4704)"/>
<path d="M113.348 256.38C113.235 256.191 113.051 256.055 112.838 256C112.732 255.973 112.623 255.966 112.515 255.98L108.394 256.582C108.176 256.614 107.979 256.732 107.847 256.909C107.715 257.086 107.659 257.308 107.69 257.527C107.722 257.745 107.84 257.942 108.017 258.074C108.194 258.206 108.416 258.262 108.635 258.23L110.77 257.919L106.836 263.199L103.727 260.875C103.639 260.809 103.539 260.761 103.432 260.734C103.326 260.707 103.215 260.701 103.106 260.717C102.997 260.733 102.893 260.77 102.799 260.826C102.704 260.883 102.622 260.958 102.557 261.046L98.3343 266.713C98.2682 266.801 98.2202 266.901 98.1931 267.008C98.1659 267.114 98.1601 267.225 98.176 267.334C98.1919 267.443 98.2292 267.547 98.2857 267.642C98.3422 267.736 98.4168 267.818 98.5053 267.884C98.5932 267.95 98.6933 267.998 98.7998 268.025C98.9063 268.052 99.0172 268.058 99.126 268.042C99.2348 268.026 99.3394 267.989 99.4337 267.932C99.528 267.876 99.6102 267.801 99.6755 267.713L103.397 262.708L106.506 265.031C106.594 265.097 106.694 265.145 106.8 265.172C106.907 265.2 107.018 265.205 107.127 265.19C107.235 265.174 107.34 265.136 107.434 265.08C107.529 265.023 107.611 264.949 107.676 264.86L112.101 258.911L112.413 261.045C112.445 261.264 112.563 261.461 112.74 261.593C112.917 261.725 113.139 261.781 113.358 261.749C113.576 261.717 113.773 261.6 113.905 261.423C114.037 261.245 114.093 261.023 114.061 260.805L113.459 256.684C113.442 256.576 113.404 256.473 113.348 256.38Z" fill="#7A6F6F"/>
<path d="M132.107 260.03L129.342 260.398L129.149 258.946L131.914 258.578C132.395 258.514 132.774 258.385 133.05 258.19C133.326 257.995 133.514 257.752 133.614 257.462C133.718 257.166 133.747 256.84 133.699 256.485C133.655 256.149 133.543 255.845 133.363 255.572C133.187 255.293 132.939 255.084 132.619 254.943C132.298 254.803 131.897 254.765 131.415 254.828L129.212 255.121L130.43 264.284L128.599 264.528L127.187 253.905L131.222 253.369C132.043 253.26 132.761 253.313 133.373 253.529C133.99 253.739 134.484 254.079 134.853 254.55C135.222 255.016 135.449 255.574 135.536 256.226C135.627 256.912 135.555 257.52 135.318 258.052C135.082 258.583 134.692 259.018 134.148 259.358C133.609 259.697 132.929 259.921 132.107 260.03ZM144.901 260.884L145.094 262.336L139.454 263.085L139.261 261.633L144.901 260.884ZM138.561 252.394L139.972 263.016L138.141 263.26L136.73 252.637L138.561 252.394ZM143.535 256.247L143.725 257.677L138.822 258.329L138.632 256.899L143.535 256.247ZM143.646 251.718L143.84 253.178L138.237 253.922L138.043 252.463L143.646 251.718ZM145.178 251.515L148.935 251.016C149.742 250.908 150.447 250.938 151.048 251.106C151.65 251.274 152.133 251.576 152.498 252.012C152.867 252.443 153.097 253.007 153.19 253.702C153.26 254.232 153.225 254.712 153.084 255.142C152.943 255.571 152.714 255.948 152.395 256.272C152.077 256.592 151.682 256.86 151.21 257.076L150.692 257.419L147.314 257.868L147.106 256.418L149.638 256.082C150.076 256.024 150.43 255.898 150.701 255.703C150.972 255.509 151.163 255.268 151.274 254.981C151.388 254.689 151.423 254.372 151.378 254.032C151.328 253.662 151.213 253.351 151.031 253.098C150.853 252.84 150.606 252.657 150.29 252.551C149.973 252.439 149.586 252.414 149.129 252.475L147.203 252.731L148.421 261.894L146.589 262.137L145.178 251.515ZM152.652 261.331L149.523 256.892L151.441 256.63L154.595 260.977L154.607 261.072L152.652 261.331ZM161.225 257.408C161.196 257.189 161.136 256.999 161.046 256.838C160.96 256.676 160.825 256.536 160.641 256.417C160.457 256.298 160.205 256.192 159.886 256.101C159.571 256.004 159.174 255.916 158.693 255.837C158.166 255.748 157.676 255.638 157.223 255.505C156.774 255.366 156.375 255.192 156.025 254.981C155.675 254.765 155.39 254.504 155.171 254.196C154.951 253.884 154.812 253.509 154.754 253.071C154.697 252.638 154.734 252.232 154.867 251.853C155.005 251.474 155.224 251.133 155.526 250.83C155.831 250.522 156.206 250.267 156.649 250.065C157.091 249.857 157.592 249.717 158.152 249.642C158.94 249.538 159.638 249.593 160.245 249.81C160.858 250.025 161.35 250.358 161.722 250.809C162.099 251.259 162.326 251.78 162.405 252.374L160.589 252.615C160.542 252.265 160.426 251.966 160.239 251.718C160.057 251.465 159.805 251.281 159.483 251.166C159.165 251.049 158.778 251.022 158.321 251.082C157.888 251.14 157.537 251.253 157.267 251.423C156.998 251.592 156.807 251.798 156.696 252.041C156.585 252.283 156.548 252.546 156.585 252.828C156.612 253.027 156.682 253.203 156.797 253.356C156.91 253.505 157.072 253.637 157.28 253.752C157.488 253.863 157.743 253.961 158.046 254.044C158.349 254.128 158.703 254.199 159.107 254.26C159.719 254.356 160.258 254.483 160.724 254.639C161.189 254.79 161.586 254.979 161.913 255.208C162.241 255.437 162.5 255.712 162.691 256.033C162.881 256.349 163.005 256.721 163.062 257.149C163.121 257.597 163.085 258.012 162.953 258.396C162.82 258.775 162.603 259.113 162.301 259.411C162.003 259.703 161.63 259.948 161.181 260.146C160.736 260.339 160.23 260.473 159.66 260.549C159.15 260.617 158.637 260.615 158.123 260.545C157.614 260.474 157.139 260.327 156.698 260.103C156.257 259.875 155.89 259.567 155.596 259.181C155.301 258.789 155.116 258.311 155.041 257.747L156.873 257.504C156.919 257.849 157.016 258.136 157.165 258.363C157.319 258.59 157.513 258.768 157.748 258.895C157.982 259.017 158.245 259.096 158.537 259.131C158.833 259.166 159.145 259.162 159.47 259.119C159.898 259.062 160.248 258.954 160.519 258.794C160.794 258.633 160.991 258.434 161.107 258.196C161.224 257.958 161.264 257.695 161.225 257.408ZM172.773 252.956L172.85 253.54C172.957 254.342 172.948 255.076 172.823 255.741C172.699 256.406 172.472 256.988 172.142 257.487C171.818 257.985 171.401 258.39 170.893 258.7C170.384 259.005 169.801 259.201 169.145 259.288C168.493 259.375 167.882 259.337 167.311 259.176C166.744 259.008 166.234 258.727 165.781 258.332C165.327 257.937 164.949 257.435 164.645 256.827C164.346 256.219 164.144 255.513 164.037 254.711L163.96 254.127C163.853 253.324 163.865 252.593 163.995 251.932C164.124 251.267 164.353 250.684 164.683 250.185C165.017 249.68 165.436 249.276 165.94 248.971C166.448 248.661 167.028 248.463 167.68 248.376C168.336 248.289 168.95 248.329 169.522 248.495C170.093 248.657 170.603 248.938 171.052 249.339C171.501 249.734 171.872 250.237 172.166 250.846C172.464 251.45 172.666 252.153 172.773 252.956ZM171.019 253.783L170.94 253.185C170.861 252.591 170.733 252.076 170.556 251.639C170.383 251.197 170.165 250.838 169.9 250.561C169.64 250.279 169.339 250.081 168.998 249.968C168.655 249.85 168.282 249.818 167.879 249.872C167.475 249.925 167.126 250.053 166.831 250.256C166.535 250.454 166.296 250.723 166.114 251.064C165.936 251.399 165.819 251.804 165.763 252.276C165.706 252.744 165.717 253.275 165.796 253.868L165.876 254.466C165.955 255.06 166.083 255.577 166.26 256.019C166.438 256.461 166.659 256.825 166.925 257.111C167.195 257.392 167.499 257.592 167.836 257.71C168.173 257.824 168.543 257.854 168.947 257.8C169.355 257.746 169.707 257.62 170.003 257.422C170.298 257.22 170.534 256.948 170.711 256.608C170.888 256.263 171.002 255.854 171.053 255.382C171.109 254.909 171.098 254.376 171.019 253.783ZM182.363 246.573L183.775 257.196L181.944 257.439L176.168 250.463L177.18 258.072L175.348 258.316L173.937 247.693L175.768 247.45L181.56 254.439L180.547 246.815L182.363 246.573ZM189 247.132L187.05 256.76L185.132 257.015L187.718 245.862L188.944 245.699L189 247.132ZM192.88 255.986L188.475 247.202L188.149 245.805L189.381 245.641L194.806 255.73L192.88 255.986ZM192.203 252.067L192.396 253.518L186.618 254.286L186.425 252.834L192.203 252.067ZM202.455 253.236L202.648 254.688L197.315 255.396L197.122 253.945L202.455 253.236ZM196.414 244.706L197.826 255.329L195.995 255.572L194.583 244.95L196.414 244.706ZM215.219 247.494L215.758 251.55C215.634 251.769 215.427 252.02 215.138 252.301C214.853 252.576 214.459 252.834 213.956 253.074C213.454 253.314 212.811 253.486 212.028 253.59C211.361 253.678 210.736 253.648 210.152 253.498C209.567 253.343 209.044 253.073 208.582 252.689C208.125 252.304 207.745 251.813 207.443 251.215C207.14 250.611 206.935 249.906 206.828 249.099L206.73 248.362C206.623 247.559 206.628 246.831 206.744 246.177C206.864 245.518 207.085 244.944 207.406 244.456C207.727 243.968 208.141 243.576 208.646 243.281C209.155 242.981 209.751 242.786 210.432 242.695C211.302 242.579 212.041 242.63 212.649 242.846C213.261 243.057 213.757 243.397 214.136 243.866C214.515 244.335 214.79 244.893 214.96 245.538L213.165 245.777C213.057 245.415 212.899 245.099 212.69 244.83C212.486 244.56 212.217 244.363 211.884 244.239C211.555 244.11 211.145 244.078 210.654 244.143C210.231 244.199 209.869 244.329 209.569 244.532C209.27 244.735 209.034 245.007 208.861 245.346C208.693 245.686 208.586 246.086 208.538 246.548C208.49 247.009 208.505 247.527 208.581 248.101L208.681 248.852C208.759 249.436 208.888 249.946 209.07 250.382C209.256 250.818 209.487 251.176 209.762 251.456C210.042 251.735 210.362 251.933 210.724 252.048C211.085 252.158 211.48 252.185 211.908 252.128C212.326 252.073 212.664 251.993 212.923 251.89C213.181 251.781 213.381 251.668 213.524 251.55C213.671 251.426 213.782 251.313 213.857 251.209L213.577 249.1L211.366 249.394L211.185 248.03L215.219 247.494ZM216.557 242.03L220.315 241.53C221.122 241.423 221.826 241.453 222.428 241.621C223.029 241.788 223.512 242.09 223.877 242.527C224.246 242.958 224.477 243.521 224.569 244.217C224.64 244.747 224.605 245.227 224.464 245.656C224.323 246.086 224.093 246.463 223.775 246.787C223.456 247.107 223.061 247.375 222.59 247.591L222.071 247.934L218.693 248.383L218.486 246.933L221.017 246.597C221.455 246.539 221.81 246.412 222.081 246.218C222.352 246.024 222.543 245.783 222.653 245.496C222.768 245.204 222.802 244.887 222.757 244.547C222.708 244.177 222.592 243.866 222.41 243.613C222.232 243.354 221.985 243.172 221.669 243.065C221.353 242.954 220.966 242.929 220.508 242.989L218.582 243.245L219.8 252.409L217.969 252.652L216.557 242.03ZM224.031 251.846L220.902 247.407L222.82 247.144L225.974 251.492L225.987 251.586L224.031 251.846ZM235.106 244.673L235.183 245.256C235.29 246.059 235.281 246.793 235.156 247.458C235.032 248.123 234.805 248.705 234.475 249.204C234.151 249.702 233.734 250.107 233.226 250.417C232.717 250.722 232.134 250.918 231.478 251.005C230.826 251.092 230.215 251.054 229.644 250.893C229.077 250.725 228.567 250.444 228.114 250.049C227.66 249.654 227.282 249.152 226.978 248.544C226.68 247.936 226.477 247.23 226.37 246.428L226.293 245.844C226.186 245.041 226.198 244.31 226.328 243.649C226.457 242.984 226.686 242.401 227.016 241.902C227.35 241.397 227.769 240.993 228.273 240.688C228.781 240.378 229.361 240.18 230.013 240.093C230.669 240.006 231.283 240.046 231.855 240.212C232.426 240.374 232.936 240.655 233.385 241.056C233.834 241.451 234.205 241.954 234.499 242.563C234.797 243.167 234.999 243.87 235.106 244.673ZM233.352 245.5L233.273 244.902C233.194 244.308 233.066 243.793 232.889 243.356C232.716 242.914 232.498 242.554 232.233 242.278C231.973 241.996 231.672 241.798 231.331 241.685C230.988 241.567 230.615 241.535 230.212 241.589C229.808 241.642 229.459 241.77 229.164 241.973C228.868 242.171 228.629 242.44 228.447 242.781C228.269 243.116 228.152 243.521 228.096 243.993C228.039 244.461 228.05 244.992 228.129 245.585L228.209 246.183C228.288 246.777 228.416 247.294 228.593 247.736C228.771 248.178 228.992 248.542 229.258 248.828C229.528 249.109 229.832 249.309 230.169 249.427C230.506 249.541 230.876 249.571 231.28 249.517C231.688 249.463 232.04 249.337 232.336 249.139C232.631 248.937 232.867 248.665 233.044 248.325C233.221 247.98 233.335 247.571 233.386 247.099C233.442 246.626 233.431 246.093 233.352 245.5ZM240.027 247.293L241.048 238.775L242.157 238.628L242.315 240.767L241.183 249.567L240.031 249.72L240.027 247.293ZM237.35 239.267L240.15 247.21L240.629 249.641L239.403 249.804L235.533 239.508L237.35 239.267ZM245.64 246.458L246.25 238.084L248.074 237.842L247.027 248.791L245.801 248.953L245.64 246.458ZM242.588 238.571L245.779 246.551L246.4 248.874L245.247 249.027L241.892 240.824L241.493 238.716L242.588 238.571ZM253.903 237.067L255.315 247.689L253.498 247.931L252.087 237.308L253.903 237.067ZM257.237 236.624L257.431 238.083L248.976 239.207L248.782 237.748L257.237 236.624ZM266.246 239.941L266.439 241.393L260.799 242.142L260.606 240.69L266.246 239.941ZM260.469 236.194L261.881 246.817L260.049 247.06L258.638 236.438L260.469 236.194ZM267.064 235.318L268.476 245.94L266.652 246.183L265.24 235.56L267.064 235.318Z" fill="url(#paint18_linear_146_4704)" fill-opacity="0.7"/>
</g>
</g>
<defs>
<filter id="filter0_d_146_4704" x="0" y="0" width="288" height="288" filterUnits="userSpaceOnUse" color-interpolation-filters="sRGB">
<feFlood flood-opacity="0" result="BackgroundImageFix"/>
<feColorMatrix in="SourceAlpha" type="matrix" values="0 0 0 0 0 0 0 0 0 0 0 0 0 0 0 0 0 0 127 0" result="hardAlpha"/>
<feOffset dx="8" dy="8"/>
<feComposite in2="hardAlpha" operator="out"/>
<feColorMatrix type="matrix" values="0 0 0 0 0.827451 0 0 0 0 0.360784 0 0 0 0 0.396078 0 0 0 1 0"/>
<feBlend mode="normal" in2="BackgroundImageFix" result="effect1_dropShadow_146_4704"/>
<feBlend mode="normal" in="SourceGraphic" in2="effect1_dropShadow_146_4704" result="shape"/>
</filter>
<filter id="filter1_d_146_4704" x="82.5605" y="4.90857" width="115.414" height="121.589" filterUnits="userSpaceOnUse" color-interpolation-filters="sRGB">
<feFlood flood-opacity="0" result="BackgroundImageFix"/>
<feColorMatrix in="SourceAlpha" type="matrix" values="0 0 0 0 0 0 0 0 0 0 0 0 0 0 0 0 0 0 127 0" result="hardAlpha"/>
<feOffset dy="1.1178"/>
<feGaussianBlur stdDeviation="2"/>
<feComposite in2="hardAlpha" operator="out"/>
<feColorMatrix type="matrix" values="0 0 0 0 0 0 0 0 0 0 0 0 0 0 0 0 0 0 0.48 0"/>
<feBlend mode="normal" in2="BackgroundImageFix" result="effect1_dropShadow_146_4704"/>
<feBlend mode="normal" in="SourceGraphic" in2="effect1_dropShadow_146_4704" result="shape"/>
</filter>
<linearGradient id="paint0_linear_146_4704" x1="-30.8427" y1="100.685" x2="95.7556" y2="146.177" gradientUnits="userSpaceOnUse">
<stop stop-color="#FFF7F8"/>
<stop offset="1" stop-color="#EFD8DB"/>
</linearGradient>
<linearGradient id="paint1_linear_146_4704" x1="-30.8427" y1="100.685" x2="153.37" y2="166.21" gradientUnits="userSpaceOnUse">
<stop stop-color="#937578"/>
<stop offset="1" stop-color="#604345"/>
</linearGradient>
<linearGradient id="paint2_linear_146_4704" x1="55.517" y1="131.799" x2="28.6243" y2="155.959" gradientUnits="userSpaceOnUse">
<stop stop-color="#453A3B"/>
<stop offset="1" stop-color="#6B4346"/>
</linearGradient>
<linearGradient id="paint3_linear_146_4704" x1="135.154" y1="161.839" x2="292.104" y2="112.001" gradientUnits="userSpaceOnUse">
<stop stop-color="#FFF7F8"/>
<stop offset="1" stop-color="#EFD8DB"/>
</linearGradient>
<linearGradient id="paint4_linear_146_4704" x1="135.154" y1="161.839" x2="363.002" y2="88.5677" gradientUnits="userSpaceOnUse">
<stop stop-color="#937578"/>
<stop offset="1" stop-color="#604345"/>
</linearGradient>
<linearGradient id="paint5_linear_146_4704" x1="211.27" y1="137.656" x2="136.972" y2="181.571" gradientUnits="userSpaceOnUse">
<stop stop-color="#453A3B"/>
<stop offset="1" stop-color="#6B4346"/>
</linearGradient>
<linearGradient id="paint6_linear_146_4704" x1="287.27" y1="113.656" x2="281.892" y2="156.325" gradientUnits="userSpaceOnUse">
<stop stop-color="#453A3B"/>
<stop offset="1" stop-color="#6B4346"/>
</linearGradient>
<linearGradient id="paint7_linear_146_4704" x1="11.5349" y1="183.421" x2="128.937" y2="208.035" gradientUnits="userSpaceOnUse">
<stop stop-color="#FFF7F8"/>
<stop offset="1" stop-color="#EFD8DB"/>
</linearGradient>
<linearGradient id="paint8_linear_146_4704" x1="11.5349" y1="183.421" x2="182.264" y2="218.741" gradientUnits="userSpaceOnUse">
<stop stop-color="#937578"/>
<stop offset="1" stop-color="#604345"/>
</linearGradient>
<linearGradient id="paint9_linear_146_4704" x1="83.689" y1="198.686" x2="55.1626" y2="220.881" gradientUnits="userSpaceOnUse">
<stop stop-color="#453A3B"/>
<stop offset="1" stop-color="#6B4346"/>
</linearGradient>
<linearGradient id="paint10_linear_146_4704" x1="-36.1075" y1="233.929" x2="59.6064" y2="240.972" gradientUnits="userSpaceOnUse">
<stop stop-color="#FFF7F8"/>
<stop offset="1" stop-color="#EFD8DB"/>
</linearGradient>
<linearGradient id="paint11_linear_146_4704" x1="-36.1075" y1="233.929" x2="103.035" y2="243.75" gradientUnits="userSpaceOnUse">
<stop stop-color="#937578"/>
<stop offset="1" stop-color="#604345"/>
</linearGradient>
<linearGradient id="paint12_linear_146_4704" x1="26.7724" y1="238.619" x2="10.981" y2="260.305" gradientUnits="userSpaceOnUse">
<stop stop-color="#453A3B"/>
<stop offset="1" stop-color="#6B4346"/>
</linearGradient>
<linearGradient id="paint13_linear_146_4704" x1="175.581" y1="196.088" x2="267.411" y2="198.516" gradientUnits="userSpaceOnUse">
<stop stop-color="#FFF7F8"/>
<stop offset="1" stop-color="#EFD8DB"/>
</linearGradient>
<linearGradient id="paint14_linear_146_4704" x1="175.581" y1="196.088" x2="309.057" y2="199.285" gradientUnits="userSpaceOnUse">
<stop stop-color="#937578"/>
<stop offset="1" stop-color="#604345"/>
</linearGradient>
<linearGradient id="paint15_linear_146_4704" x1="263.109" y1="198.496" x2="243.664" y2="217.872" gradientUnits="userSpaceOnUse">
<stop stop-color="#453A3B"/>
<stop offset="1" stop-color="#6B4346"/>
</linearGradient>
<linearGradient id="paint16_linear_146_4704" x1="81.5611" y1="265.653" x2="246.499" y2="243.779" gradientUnits="userSpaceOnUse">
<stop stop-color="#FFF7F8"/>
<stop offset="1" stop-color="#EFD8DB"/>
</linearGradient>
<linearGradient id="paint17_linear_146_4704" x1="81.5611" y1="265.653" x2="321.122" y2="232.668" gradientUnits="userSpaceOnUse">
<stop stop-color="#937578"/>
<stop offset="1" stop-color="#604345"/>
</linearGradient>
<linearGradient id="paint18_linear_146_4704" x1="242.774" y1="244.334" x2="237.933" y2="277.397" gradientUnits="userSpaceOnUse">
<stop stop-color="#453A3B"/>
<stop offset="1" stop-color="#6B4346"/>
</linearGradient>
<clipPath id="clip0_146_4704">
<rect width="280" height="280" rx="12" fill="white"/>
</clipPath>
<clipPath id="clip1_146_4704">
<rect width="25.021" height="25.021" fill="white" transform="translate(87.9453 129.441) rotate(20)"/>
</clipPath>
<clipPath id="clip2_146_4704">
<rect width="27.0559" height="27.0559" fill="white" transform="translate(149.945 142.349) rotate(-17.6278)"/>
</clipPath>
<clipPath id="clip3_146_4704">
<rect width="27.0559" height="27.0559" fill="white" transform="translate(138.867 195.768) rotate(102.128)"/>
</clipPath>
</defs>
</svg>
