<svg width="288" height="288" viewBox="0 0 288 288" fill="none" xmlns="http://www.w3.org/2000/svg">
<g filter="url(#filter0_d_146_4747)">
<g clip-path="url(#clip0_146_4747)">
<rect width="280" height="280" rx="12" fill="#F78F97"/>
<path d="M288.75 75.3702L288.749 72.3701L285.749 72.3718L80.5218 72.487L77.5217 72.4887L77.5234 75.4887L77.6704 337.439L77.6721 340.439L80.6722 340.438L285.899 340.323L288.899 340.321L288.897 337.321L288.75 75.3702Z" fill="#FFEDEE" stroke="#915C5C" stroke-width="6"/>
<path d="M80.3377 337.769L80.3374 337.428L80.1816 75.1422L80.5231 75.142L286.086 75.0204L286.087 75.3619L286.242 337.647L285.901 337.648L80.3377 337.769ZM80.8645 75.8248L81.0196 337.086L285.559 336.964L285.404 75.7033L80.8645 75.8248Z" fill="#915C5C"/>
<path d="M266.901 85.416L211.609 85.447L211.611 88.9973L266.903 88.9663L266.901 85.416Z" fill="#F78F97"/>
<path d="M264.252 112.475C264.252 112.487 264.134 112.499 263.911 112.511C263.647 112.52 263.324 112.531 262.934 112.545C262.031 112.561 260.816 112.581 259.34 112.607C256.254 112.636 252.087 112.677 247.482 112.721C242.85 112.762 238.656 112.757 235.62 112.731C234.144 112.71 232.929 112.693 232.026 112.68C231.635 112.667 231.313 112.656 231.049 112.647C230.825 112.636 230.708 112.624 230.708 112.612C230.708 112.6 230.825 112.588 231.048 112.576C231.313 112.567 231.635 112.555 232.026 112.542C232.929 112.526 234.143 112.505 235.62 112.48C238.706 112.45 242.873 112.41 247.479 112.366C252.111 112.325 256.304 112.329 259.339 112.356C260.816 112.377 262.031 112.394 262.935 112.407C263.325 112.42 263.647 112.431 263.912 112.439C264.135 112.451 264.252 112.463 264.252 112.475Z" fill="#F78F97"/>
<path d="M266.57 126.031C266.57 126.13 254.508 126.216 239.633 126.225C224.752 126.234 212.693 126.162 212.692 126.063C212.692 125.965 224.752 125.878 239.633 125.87C254.508 125.861 266.57 125.934 266.57 126.031Z" fill="#896262"/>
<path d="M266.228 143.071C266.228 143.169 254.166 143.256 239.291 143.265C224.41 143.273 212.351 143.201 212.351 143.103C212.35 143.005 224.41 142.918 239.291 142.909C254.166 142.9 266.228 142.973 266.228 143.071Z" fill="#896262"/>
<path d="M266.851 134.585C266.852 134.683 254.789 134.769 239.914 134.778C225.033 134.787 212.974 134.715 212.974 134.616C212.973 134.518 225.033 134.431 239.914 134.423C254.789 134.414 266.852 134.487 266.851 134.585Z" fill="#896262"/>
<path d="M145.653 245.16C145.653 245.259 139.398 245.341 131.684 245.346C123.966 245.351 117.713 245.275 117.713 245.177C117.713 245.079 123.967 244.995 131.684 244.991C139.398 244.986 145.653 245.062 145.653 245.16Z" fill="#F78F97"/>
<path d="M132.843 260.621C132.843 260.719 124.465 260.804 114.131 260.81C103.794 260.817 95.4182 260.742 95.4179 260.644C95.4176 260.546 103.795 260.461 114.131 260.455C124.464 260.448 132.842 260.523 132.843 260.621Z" fill="#F78F97"/>
<path d="M200.539 266.98C200.539 267.078 177.006 267.172 147.983 267.189C118.95 267.206 95.4219 267.141 95.4216 267.042C95.4212 266.945 118.95 266.851 147.983 266.833C177.006 266.816 200.539 266.882 200.539 266.98Z" fill="#896262"/>
<path d="M132.851 276.53C132.851 276.628 124.473 276.713 114.139 276.719C103.802 276.725 95.426 276.651 95.4257 276.552C95.4254 276.454 103.802 276.369 114.139 276.363C124.472 276.357 132.851 276.432 132.851 276.53Z" fill="#F78F97"/>
<path d="M200.548 282.889C200.549 282.986 177.015 283.08 147.993 283.097C118.959 283.114 95.4316 283.049 95.4313 282.951C95.431 282.853 118.959 282.759 147.993 282.741C177.015 282.724 200.549 282.79 200.548 282.889Z" fill="#896262"/>
<path d="M111.118 239.462L98.2852 239.469L98.2897 247.623L111.123 247.616L111.118 239.462Z" fill="#F78F97"/>
<path d="M107.288 247.619L102.135 247.622L102.136 250.174L107.289 250.171L107.288 247.619Z" fill="#F78F97"/>
<path d="M109.26 250.073C109.262 250.171 107.329 250.283 104.945 250.321C102.56 250.36 100.626 250.311 100.624 250.213C100.623 250.115 102.554 250.005 104.939 249.966C107.324 249.927 109.258 249.975 109.26 250.073Z" fill="#F78F97"/>
<path d="M214.925 237.818L223.226 234.03L230.861 237.588L223.165 241.677L214.925 237.818Z" fill="#F78F97"/>
<path d="M216.699 239.787L216.658 244.784L229.03 244.605L228.96 239.78L223.028 242.796L216.699 239.787Z" fill="#F78F97"/>
<path d="M265.318 242.492C265.318 242.59 259.062 242.674 251.348 242.679C243.631 242.684 237.377 242.608 237.377 242.509C237.377 242.411 243.63 242.328 251.348 242.323C259.063 242.319 265.318 242.395 265.318 242.492Z" fill="#F78F97"/>
<path d="M235.557 257.482C235.557 257.58 231.256 257.662 225.953 257.665C220.647 257.668 216.348 257.591 216.348 257.493C216.347 257.395 220.647 257.312 225.953 257.31C231.256 257.306 235.557 257.383 235.557 257.482Z" fill="#896262"/>
<path d="M270.306 264.379C270.307 264.477 258.227 264.564 243.331 264.573C228.429 264.582 216.352 264.51 216.352 264.411C216.352 264.313 228.428 264.226 243.33 264.217C258.228 264.208 270.306 264.281 270.306 264.379Z" fill="#896262"/>
<path d="M235.691 275.265C235.692 275.363 231.391 275.446 226.088 275.449C220.782 275.452 216.483 275.375 216.482 275.277C216.482 275.179 220.782 275.096 226.087 275.094C231.391 275.09 235.692 275.167 235.691 275.265Z" fill="#896262"/>
<path d="M270.441 282.163C270.441 282.261 258.362 282.347 243.465 282.356C228.564 282.365 216.487 282.293 216.487 282.194C216.487 282.096 228.563 282.009 243.465 282C258.362 281.992 270.441 282.064 270.441 282.163Z" fill="#896262"/>
<path d="M219.993 108.712C221.074 108.258 221.842 107.142 221.848 105.829C221.854 104.109 220.551 102.709 218.938 102.703C217.325 102.696 216.012 104.085 216.006 105.806C216.001 107.131 216.776 108.258 217.869 108.712C213.375 109.392 213.582 114.277 213.582 114.277L224.21 114.32C224.21 114.32 224.449 109.382 219.993 108.712Z" fill="#F78F97"/>
<path d="M232.184 178.611C232.185 178.709 227.85 178.791 222.504 178.795C217.157 178.797 212.824 178.721 212.823 178.622C212.823 178.524 217.157 178.442 222.505 178.439C227.85 178.436 232.184 178.512 232.184 178.611Z" fill="#896262"/>
<path d="M232.288 187.164C232.288 187.261 227.954 187.344 222.608 187.347C217.26 187.35 212.927 187.274 212.927 187.175C212.927 187.077 217.26 186.995 222.608 186.991C227.953 186.988 232.288 187.065 232.288 187.164Z" fill="#896262"/>
<path d="M270.388 179.586L238.882 179.605C238.294 179.605 237.817 179.129 237.817 178.541C237.817 177.953 238.293 177.476 238.881 177.476L270.387 177.457C270.975 177.457 271.452 177.933 271.452 178.521C271.452 179.108 270.976 179.585 270.388 179.586Z" fill="#E0E0E0"/>
<path d="M265.783 179.588L238.882 179.605C238.294 179.605 237.817 179.129 237.817 178.541C237.816 177.953 238.293 177.476 238.881 177.476L265.782 177.46C266.37 177.459 266.847 177.936 266.847 178.524C266.847 179.111 266.371 179.588 265.783 179.588Z" fill="#F78F97"/>
<path d="M270.396 187.627L238.89 187.646C238.302 187.646 237.825 187.17 237.825 186.582C237.824 185.994 238.301 185.517 238.889 185.517L270.395 185.498C270.983 185.497 271.46 185.974 271.46 186.562C271.46 187.15 270.983 187.627 270.396 187.627Z" fill="#E0E0E0"/>
<path d="M260.996 187.632L238.89 187.645C238.302 187.646 237.825 187.169 237.825 186.582C237.825 185.994 238.301 185.517 238.889 185.517L260.995 185.504C261.583 185.503 262.06 185.979 262.06 186.567C262.061 187.155 261.584 187.632 260.996 187.632Z" fill="#F78F97"/>
<path d="M232.575 195.911C232.575 196.009 228.241 196.091 222.895 196.094C217.547 196.097 213.214 196.021 213.214 195.922C213.214 195.824 217.547 195.742 222.895 195.738C228.24 195.735 232.575 195.812 232.575 195.911Z" fill="#896262"/>
<path d="M232.679 204.463C232.679 204.561 228.344 204.644 222.999 204.647C217.651 204.65 213.318 204.573 213.318 204.475C213.317 204.377 217.651 204.295 222.999 204.291C228.344 204.288 232.678 204.365 232.679 204.463Z" fill="#896262"/>
<path d="M270.781 196.885L239.275 196.904C238.687 196.905 238.21 196.428 238.21 195.84C238.209 195.252 238.686 194.775 239.274 194.775L270.78 194.756C271.368 194.756 271.845 195.232 271.845 195.82C271.845 196.408 271.368 196.884 270.781 196.885Z" fill="#E0E0E0"/>
<path d="M266.176 196.888L239.274 196.904C238.686 196.905 238.209 196.428 238.209 195.84C238.209 195.252 238.685 194.775 239.273 194.775L266.175 194.759C266.763 194.758 267.24 195.235 267.24 195.823C267.24 196.41 266.763 196.887 266.176 196.888Z" fill="#F78F97"/>
<path d="M270.789 204.926L239.283 204.945C238.695 204.946 238.218 204.469 238.218 203.882C238.217 203.294 238.694 202.817 239.281 202.817L270.788 202.798C271.376 202.797 271.853 203.274 271.853 203.862C271.854 204.449 271.377 204.926 270.789 204.926Z" fill="#E0E0E0"/>
<path d="M261.389 204.931L239.283 204.944C238.695 204.945 238.218 204.469 238.218 203.881C238.217 203.293 238.694 202.816 239.282 202.816L261.388 202.803C261.976 202.802 262.453 203.278 262.453 203.866C262.453 204.454 261.977 204.931 261.389 204.931Z" fill="#F78F97"/>
<path d="M233.106 213.605C233.107 213.703 228.772 213.785 223.426 213.788C218.079 213.791 213.745 213.715 213.745 213.616C213.746 213.518 218.079 213.436 223.427 213.433C228.772 213.429 233.107 213.507 233.106 213.605Z" fill="#896262"/>
<path d="M271.312 214.579L239.806 214.598C239.218 214.599 238.741 214.122 238.741 213.534C238.741 212.946 239.217 212.469 239.805 212.469L271.312 212.45C271.9 212.45 272.377 212.926 272.377 213.514C272.377 214.102 271.9 214.579 271.312 214.579Z" fill="#E0E0E0"/>
<path d="M257.282 214.588L239.806 214.598C239.218 214.598 238.741 214.122 238.741 213.534C238.741 212.946 239.217 212.469 239.805 212.469L257.281 212.459C257.869 212.458 258.346 212.935 258.346 213.523C258.347 214.11 257.87 214.587 257.282 214.588Z" fill="#F78F97"/>
<path d="M222.396 169.183L221.437 167.16C221.983 166.405 222.333 165.494 222.406 164.497C222.617 161.629 220.462 159.133 217.594 158.922C214.725 158.711 212.23 160.866 212.019 163.734C211.808 166.602 213.963 169.099 216.831 169.309C218.029 169.397 219.161 169.072 220.09 168.455L220.087 168.457L222.396 169.183Z" fill="#F78F97"/>
<path d="M263.18 164.755C263.18 164.853 255.873 164.94 246.862 164.947C237.848 164.955 230.542 164.883 230.543 164.784C230.542 164.686 237.847 164.6 246.862 164.591C255.873 164.584 263.179 164.656 263.18 164.755Z" fill="#F78F97"/>
<path d="M72.5054 75.0701L87.2198 204.777L195.017 195.507L180.872 65.5554L72.5054 75.0701Z" fill="#FFB8B8"/>
<path d="M186.333 62.1008L76.9409 75.3603L89.1781 201.608L198.39 191.426L186.333 62.1008Z" fill="#D86A72"/>
<rect x="79.1074" y="75.0542" width="112.488" height="124.013" transform="rotate(-5.69231 79.1074 75.0542)" fill="#FFD6D6"/>
<g filter="url(#filter1_d_146_4747)">
<rect x="42" y="36" width="78.2529" height="78.2529" rx="39.1265" fill="#FFEDEE"/>
<path d="M82.4668 51.5218L87.6607 63.3682C87.8562 63.814 88.1677 64.1991 88.5627 64.4835C88.9577 64.7679 89.4218 64.9411 89.9065 64.9851L102.559 66.1195C103.991 66.3279 104.562 68.0837 103.524 69.0947L93.993 77.1016C93.2212 77.7499 92.8701 78.7686 93.0823 79.7526L95.8529 92.722C96.096 94.1458 94.6027 95.234 93.3216 94.5587L82.2777 88.0914C81.8612 87.8468 81.387 87.7179 80.904 87.7179C80.421 87.7179 79.9468 87.8468 79.5303 88.0914L68.4865 94.5549C67.2092 95.2263 65.712 94.142 65.9551 92.7181L68.7257 79.7487C68.9341 78.7647 68.5868 77.746 67.815 77.0978L58.28 69.0985C57.2458 68.0914 57.8169 66.3318 59.2447 66.1234L71.8976 64.9889C72.3824 64.945 72.8464 64.7718 73.2415 64.4874C73.6365 64.203 73.948 63.8178 74.1434 63.3721L79.3373 51.5256C79.9818 50.2291 81.8263 50.2291 82.4668 51.5218Z" fill="#F0D662"/>
<path d="M82.2611 64.078L81.3813 55.3495C81.3466 54.8633 81.2462 54.0298 82.0257 54.0298C82.6431 54.0298 82.9788 55.3148 82.9788 55.3148L85.6182 62.3223C86.6138 64.9887 86.2048 65.9032 85.2439 66.4435C84.1403 67.0609 82.5119 66.5785 82.2611 64.078Z" fill="#FFFF8D"/>
<path d="M93.1464 76.3259L100.717 70.4181C101.092 70.1056 101.767 69.6078 101.227 69.0405C100.798 68.5929 99.6408 69.2373 99.6408 69.2373L93.0152 71.8266C91.0395 72.5096 89.7276 73.5206 89.6118 74.794C89.4613 76.4918 90.9855 77.8 93.1464 76.3259Z" fill="#F4B400"/>
</g>
<g clip-path="url(#clip1_146_4747)">
<path d="M133.994 138.246C134.673 138.736 135.126 139.299 135.575 140.003C135.625 140.081 135.675 140.159 135.727 140.239C135.889 140.492 136.05 140.745 136.211 140.998C136.324 141.175 136.437 141.351 136.55 141.527C136.72 141.791 136.889 142.055 137.058 142.319C137.56 143.103 138.071 143.882 138.585 144.659C138.964 145.234 139.339 145.811 139.71 146.391C139.8 146.53 139.889 146.668 139.98 146.811C140.153 147.08 140.325 147.35 140.497 147.62C141.245 148.819 141.245 148.819 142.391 149.587C142.947 149.63 143.443 149.602 143.956 149.372C144.457 148.942 144.725 148.566 144.972 147.957C145.07 147.72 145.07 147.72 145.17 147.478C145.239 147.306 145.308 147.134 145.378 146.956C145.452 146.775 145.527 146.593 145.601 146.412C146.029 145.363 146.446 144.309 146.864 143.255C146.909 143.142 146.954 143.029 147 142.912C147.219 142.359 147.438 141.805 147.655 141.25C147.892 140.646 148.132 140.043 148.378 139.442C148.418 139.344 148.457 139.247 148.498 139.147C148.615 138.863 148.735 138.581 148.857 138.3C148.925 138.138 148.994 137.977 149.065 137.811C149.388 137.226 149.779 136.774 150.352 136.414C151.476 136.2 152.611 136.3 153.743 136.385C153.836 136.392 153.929 136.399 154.025 136.405C162.505 137.022 162.505 137.022 165.877 138.589C166.033 138.661 166.189 138.733 166.349 138.808C169.843 140.552 172.504 143.641 173.747 147.342C173.845 147.65 173.936 147.96 174.025 148.271C174.051 148.362 174.077 148.453 174.105 148.546C174.618 150.505 174.583 152.59 174.571 154.599C174.57 154.847 174.569 155.096 174.569 155.344C174.568 155.859 174.565 156.374 174.563 156.889C174.559 157.547 174.558 158.204 174.556 158.862C174.555 159.372 174.554 159.883 174.551 160.393C174.551 160.636 174.55 160.878 174.549 161.121C174.549 161.459 174.547 161.798 174.545 162.137C174.545 162.235 174.544 162.333 174.544 162.434C174.528 164.304 174.528 164.304 173.988 165.015C173.925 165.102 173.862 165.188 173.797 165.277C173.372 165.73 172.849 165.72 172.262 165.778C172.167 165.787 172.071 165.797 171.973 165.807C171.65 165.839 171.327 165.87 171.005 165.902C170.772 165.925 170.539 165.948 170.306 165.971C169.665 166.034 169.024 166.097 168.382 166.16C167.691 166.227 167 166.295 166.309 166.364C164.797 166.513 163.285 166.661 161.773 166.809C160.83 166.901 159.886 166.993 158.943 167.086C156.332 167.342 153.722 167.597 151.111 167.852C150.944 167.868 150.776 167.884 150.604 167.901C150.353 167.926 150.353 167.926 150.096 167.951C149.757 167.984 149.417 168.017 149.078 168.05C148.909 168.066 148.741 168.083 148.567 168.1C145.836 168.366 143.106 168.634 140.376 168.904C137.574 169.18 134.773 169.454 131.971 169.727C130.397 169.88 128.824 170.034 127.25 170.19C125.91 170.323 124.57 170.454 123.231 170.583C122.546 170.649 121.863 170.716 121.179 170.784C120.553 170.847 119.927 170.908 119.302 170.967C119.075 170.989 118.848 171.011 118.621 171.035C118.314 171.066 118.006 171.095 117.699 171.123C117.528 171.14 117.357 171.157 117.18 171.174C116.526 171.161 116.144 170.944 115.646 170.535C115.066 169.801 114.896 168.862 114.719 167.96C114.697 167.855 114.676 167.75 114.654 167.642C114.584 167.299 114.516 166.955 114.448 166.611C114.399 166.369 114.351 166.126 114.302 165.884C114.2 165.377 114.099 164.87 113.999 164.362C113.871 163.719 113.741 163.076 113.611 162.432C113.511 161.932 113.411 161.431 113.311 160.931C113.264 160.694 113.217 160.457 113.169 160.22C112.775 158.273 112.376 156.249 112.555 154.255C112.568 154.096 112.568 154.096 112.581 153.933C112.851 151.049 113.911 148.529 115.571 146.18C115.642 146.078 115.712 145.976 115.785 145.871C118.653 142.081 129.372 136.471 133.994 138.246Z" fill="#D86A72"/>
<path d="M149.657 99.2027C153.01 101.544 155.34 104.472 156.829 108.276C156.893 108.436 156.957 108.597 157.023 108.763C158.517 113.139 158.113 118.285 156.13 122.424C154.885 124.911 153.117 127.172 150.891 128.846C150.749 128.957 150.608 129.068 150.463 129.182C146.781 131.945 141.864 133.13 137.302 132.557C136.181 132.386 135.095 132.118 134.018 131.765C133.922 131.734 133.826 131.703 133.728 131.671C129.319 130.217 125.639 126.948 123.525 122.833C123.179 122.13 122.874 121.413 122.588 120.683C122.524 120.523 122.46 120.362 122.394 120.196C120.9 115.82 121.304 110.674 123.287 106.535C125.458 102.199 129.021 99.1137 133.505 97.3592C133.665 97.2952 133.826 97.2311 133.992 97.165C139.092 95.4235 145.192 96.2136 149.657 99.2027Z" fill="#D86A72"/>
</g>
<path d="M167.764 83.6483L167.764 83.6508C167.779 83.7372 167.791 83.8055 167.801 83.8532C167.806 83.8761 167.811 83.8992 167.817 83.9185C167.819 83.9266 167.824 83.9435 167.831 83.9618C167.835 83.9691 167.844 83.9913 167.862 84.0155C167.871 84.0274 167.89 84.0513 167.922 84.073C167.955 84.0957 168.016 84.1256 168.097 84.1151C168.177 84.1046 168.229 84.0595 168.256 84.0282C168.281 83.9985 168.293 83.9698 168.298 83.9558C168.309 83.9274 168.313 83.9032 168.314 83.8954C168.316 83.8757 168.316 83.8581 168.316 83.8498C168.316 83.83 168.315 83.8065 168.314 83.7833C168.31 83.735 168.304 83.6659 168.296 83.5784L168.295 83.5747C168.274 83.3845 168.245 83.1296 168.208 82.8059L168.208 82.8059L168.208 82.8031L167.838 79.8526L167.838 79.8515C167.733 79.0419 167.613 78.1223 167.48 77.1002C167.401 76.4972 167.318 75.8585 167.231 75.1857L167.231 75.1856L167.23 75.1817C167.196 74.95 167.166 74.7092 167.135 74.4612C167.047 73.7643 166.952 73.0108 166.749 72.2424L166.749 72.2424L166.748 72.2397C166.604 71.7173 166.395 71.1668 166.04 70.6686L166.039 70.6677C165.684 70.1736 165.163 69.7346 164.519 69.5365C163.25 69.1354 161.799 69.572 160.799 70.5144L160.798 70.5153C159.79 71.4753 159.276 72.8566 159.034 74.2244L159.034 74.2249C158.553 76.9858 158.863 79.9757 159.436 82.9825L159.436 82.9837C159.731 84.487 160.041 86.0197 160.412 87.5879L160.413 87.5896C160.795 89.1537 161.309 90.7798 162.234 92.2499L162.234 92.2502C163.161 93.7178 164.584 94.9711 166.342 95.529L166.344 95.5294C167.216 95.8005 168.186 95.8927 169.12 95.6726C170.064 95.4757 170.911 94.9621 171.595 94.3205L171.597 94.3181C172.962 93.0002 173.672 91.1778 173.853 89.4068C174.049 87.6338 173.832 85.8972 173.619 84.256L173.619 84.2551C173.184 80.9874 172.765 77.8337 172.365 74.8272L172.356 74.7587L172.356 74.7585C172.268 74.1012 172.181 73.4508 172.095 72.8078C171.983 71.9713 171.873 71.1472 171.765 70.3368L171.765 70.3366C171.748 70.2097 171.731 70.0829 171.714 69.9563C171.54 68.6586 171.369 67.3786 171.102 66.1512C170.816 64.8019 170.405 63.5042 169.797 62.3459C169.188 61.1857 168.361 60.1864 167.385 59.4588L167.384 59.4578C165.42 58.0129 163.133 57.623 161.254 57.7857L161.253 57.7858C159.357 57.9529 157.773 58.6765 156.779 59.6237C155.771 60.5599 155.351 61.5819 155.144 62.2496L155.144 62.2496L155.142 62.2547C155.045 62.5939 154.992 62.8587 154.963 63.0411C154.949 63.1323 154.941 63.2029 154.936 63.2518C154.934 63.2763 154.932 63.2954 154.931 63.3089L154.93 63.3251L154.93 63.33L154.93 63.3317L154.93 63.3323L154.93 63.3326L154.93 63.3327C154.93 63.3327 154.93 63.3328 155.18 63.3427L154.93 63.3328L154.921 63.5476L155.132 63.5882C155.223 63.6056 155.295 63.5703 155.333 63.5408C155.368 63.5142 155.388 63.4849 155.396 63.4718C155.413 63.4445 155.422 63.4187 155.425 63.4091C155.434 63.3854 155.44 63.3583 155.445 63.337C155.451 63.3155 155.457 63.2849 155.465 63.25C155.472 63.217 155.481 63.1802 155.489 63.1431C155.527 62.9791 155.587 62.7369 155.688 62.425C155.899 61.8172 156.298 60.9132 157.21 60.0945L157.21 60.0945L157.212 60.0922C158.103 59.2708 159.546 58.6206 161.311 58.4824C163.055 58.3495 165.159 58.7341 166.934 60.0605C167.807 60.7215 168.554 61.6316 169.111 62.7054C169.67 63.7844 170.055 65.0111 170.325 66.3164L170.326 66.3177C170.579 67.5102 170.742 68.7626 170.911 70.0647C170.927 70.1906 170.943 70.3169 170.96 70.4437C171.059 71.2071 171.16 71.9826 171.263 72.7691C171.353 73.4603 171.444 74.16 171.536 74.8676L171.536 74.8678C171.932 77.8956 172.348 81.0725 172.779 84.3665C172.99 86.0119 173.19 87.6653 173.005 89.314L173.004 89.3165C172.838 90.9405 172.191 92.554 171.006 93.7009C170.41 94.2577 169.701 94.6794 168.937 94.8384L168.937 94.8383L168.931 94.84C168.169 95.0211 167.357 94.9502 166.599 94.7155C165.07 94.2327 163.79 93.123 162.951 91.7973C162.098 90.4478 161.605 88.9202 161.228 87.3905C160.86 85.8504 160.545 84.3171 160.249 82.8267C159.673 79.8564 159.373 76.9758 159.817 74.3617C160.038 73.0764 160.502 71.875 161.334 71.0758C162.152 70.2918 163.34 69.9542 164.293 70.2541L164.297 70.2552C164.761 70.3941 165.155 70.7124 165.441 71.1019C165.728 71.4977 165.913 71.9596 166.048 72.4351C166.242 73.1389 166.336 73.8337 166.429 74.5169C166.464 74.7738 166.498 75.0291 166.538 75.2827C166.797 77.0924 167.021 78.6544 167.205 79.9389L167.205 79.9399C167.361 80.9921 167.488 81.8532 167.586 82.5117L167.641 82.8818L167.641 82.8849C167.691 83.1894 167.729 83.4317 167.759 83.6173L167.764 83.6483Z" fill="#896262" stroke="#896262" stroke-width="0.5"/>
</g>
</g>
<defs>
<filter id="filter0_d_146_4747" x="0" y="0" width="288" height="288" filterUnits="userSpaceOnUse" color-interpolation-filters="sRGB">
<feFlood flood-opacity="0" result="BackgroundImageFix"/>
<feColorMatrix in="SourceAlpha" type="matrix" values="0 0 0 0 0 0 0 0 0 0 0 0 0 0 0 0 0 0 127 0" result="hardAlpha"/>
<feOffset dx="8" dy="8"/>
<feComposite in2="hardAlpha" operator="out"/>
<feColorMatrix type="matrix" values="0 0 0 0 0.827451 0 0 0 0 0.360784 0 0 0 0 0.396078 0 0 0 1 0"/>
<feBlend mode="normal" in2="BackgroundImageFix" result="effect1_dropShadow_146_4747"/>
<feBlend mode="normal" in="SourceGraphic" in2="effect1_dropShadow_146_4747" result="shape"/>
</filter>
<filter id="filter1_d_146_4747" x="34" y="29.1178" width="94.2539" height="94.2529" filterUnits="userSpaceOnUse" color-interpolation-filters="sRGB">
<feFlood flood-opacity="0" result="BackgroundImageFix"/>
<feColorMatrix in="SourceAlpha" type="matrix" values="0 0 0 0 0 0 0 0 0 0 0 0 0 0 0 0 0 0 127 0" result="hardAlpha"/>
<feOffset dy="1.1178"/>
<feGaussianBlur stdDeviation="4"/>
<feComposite in2="hardAlpha" operator="out"/>
<feColorMatrix type="matrix" values="0 0 0 0 0 0 0 0 0 0 0 0 0 0 0 0 0 0 0.24 0"/>
<feBlend mode="normal" in2="BackgroundImageFix" result="effect1_dropShadow_146_4747"/>
<feBlend mode="normal" in="SourceGraphic" in2="effect1_dropShadow_146_4747" result="shape"/>
</filter>
<clipPath id="clip0_146_4747">
<rect width="280" height="280" rx="12" fill="white"/>
</clipPath>
<clipPath id="clip1_146_4747">
<rect width="72.2565" height="72.2565" fill="white" transform="translate(102 100) rotate(-5.55971)"/>
</clipPath>
</defs>
</svg>
