<svg width="24" height="22" viewBox="0 0 24 22" fill="none" xmlns="http://www.w3.org/2000/svg">
<path d="M12.03 21.4201C11.75 21.4201 11.4752 21.3701 11.2056 21.2701C10.936 21.1701 10.6908 21.0201 10.47 20.8201C8.29 18.9001 6.52 17.2849 5.16 15.9745C3.8 14.6641 2.7352 13.5145 1.9656 12.5257C1.196 11.5369 0.676 10.6317 0.4056 9.8101C0.1352 8.9885 0 8.1185 0 7.2001C0 5.3601 0.64 3.8001 1.92 2.5201C3.2 1.2401 4.76 0.600098 6.6 0.600098C7.92 0.600098 9.08 0.854898 10.08 1.3645C11.08 1.8741 11.44 2.6093 11.16 3.5701L10.05 7.4701C9.95 7.8701 10.0152 8.2253 10.2456 8.5357C10.476 8.8461 10.7908 9.0009 11.19 9.0001H13.2L12.42 16.6201C12.4 16.7801 12.4652 16.8701 12.6156 16.8901C12.766 16.9101 12.8608 16.8501 12.9 16.7101L15.12 9.3601C15.24 8.9601 15.18 8.6001 14.94 8.2801C14.7 7.9601 14.38 7.8001 13.98 7.8001H12L13.83 2.3701C14.05 1.6701 14.51 1.2001 15.21 0.960098C15.91 0.720098 16.64 0.600098 17.4 0.600098C19.24 0.600098 20.8 1.2401 22.08 2.5201C23.36 3.8001 24 5.3601 24 7.2001C24 8.0801 23.84 8.9501 23.52 9.8101C23.2 10.6701 22.6448 11.6201 21.8544 12.6601C21.064 13.7001 20.004 14.8753 18.6744 16.1857C17.3448 17.4961 15.66 19.0409 13.62 20.8201C13.4 21.0201 13.15 21.1701 12.87 21.2701C12.59 21.3701 12.31 21.4201 12.03 21.4201Z" fill="url(#paint0_linear_146_4623)"/>
<defs>
<linearGradient id="paint0_linear_146_4623" x1="12" y1="0.600098" x2="12" y2="21.4201" gradientUnits="userSpaceOnUse">
<stop stop-color="#FF707A"/>
<stop offset="1" stop-color="#B24E55"/>
</linearGradient>
</defs>
</svg>
