<svg width="18" height="26" viewBox="0 0 18 26" fill="none" xmlns="http://www.w3.org/2000/svg">
<path d="M2.35554 25.5H15.541C16.9263 25.5 17.7543 24.7398 17.7543 23.2734V22.9199C17.7682 19.1718 13.7761 16.1299 12.024 14.4734C11.535 14.0116 11.2772 13.591 11.2772 12.9797C11.2772 12.3685 11.535 11.9611 12.0246 11.486C13.7628 9.8017 17.7549 6.95047 17.7549 3.05284V2.72722C17.7549 1.26017 16.9263 0.5 15.5416 0.5H2.35496C0.996848 0.5 0.25 1.26017 0.25 2.60496V3.05284C0.25 6.95047 4.24207 9.8017 5.99418 11.486C6.4832 11.9611 6.74103 12.3685 6.74103 12.9797C6.74103 13.591 6.4832 14.0116 5.9936 14.4734C4.24207 16.1305 0.25 19.1724 0.25 22.9199V23.395C0.25 24.7392 0.997428 25.5 2.35554 25.5ZM9.00939 17.2435C9.29445 17.2435 9.52505 17.4069 9.79737 17.6781L14.6858 22.472C15.1881 22.9744 14.9436 23.6395 14.2646 23.6395H3.74031C3.06125 23.6395 2.81733 22.9605 3.31967 22.472L8.20808 17.6781C8.47981 17.4202 8.72374 17.2435 9.00939 17.2435Z" fill="url(#paint0_linear_146_4619)"/>
<defs>
<linearGradient id="paint0_linear_146_4619" x1="9.00243" y1="0.5" x2="9.00243" y2="25.5" gradientUnits="userSpaceOnUse">
<stop stop-color="#FF707A"/>
<stop offset="1" stop-color="#B24E55"/>
</linearGradient>
</defs>
</svg>
