<svg width="22" height="26" viewBox="0 0 22 26" fill="none" xmlns="http://www.w3.org/2000/svg">
<path d="M10.3305 7.30875C9.56212 7.30875 8.82516 7.60856 8.2818 8.14221C7.73844 8.67587 7.43318 9.39967 7.43318 10.1544C7.43318 10.9091 7.73844 11.6329 8.2818 12.1665C8.82516 12.7002 9.56212 13 10.3305 13C11.099 13 11.8359 12.7002 12.3793 12.1665C12.9227 11.6329 13.2279 10.9091 13.2279 10.1544C13.2279 9.39967 12.9227 8.67587 12.3793 8.14221C11.8359 7.60856 11.099 7.30875 10.3305 7.30875ZM0.5 3.625C0.5 2.7962 0.835226 2.00134 1.43193 1.41529C2.02864 0.82924 2.83795 0.5 3.68182 0.5H18.3182C18.736 0.5 19.1498 0.580831 19.5358 0.737876C19.9218 0.894922 20.2726 1.12511 20.5681 1.41529C20.8635 1.70547 21.0979 2.04997 21.2578 2.42911C21.4177 2.80826 21.5 3.21462 21.5 3.625V21.4375C21.5 21.6861 21.3994 21.9246 21.2204 22.1004C21.0414 22.2762 20.7986 22.375 20.5455 22.375H2.40909C2.40909 22.7065 2.54318 23.0245 2.78186 23.2589C3.02055 23.4933 3.34427 23.625 3.68182 23.625H20.5455C20.7986 23.625 21.0414 23.7238 21.2204 23.8996C21.3994 24.0754 21.5 24.3139 21.5 24.5625C21.5 24.8111 21.3994 25.0496 21.2204 25.2254C21.0414 25.4012 20.7986 25.5 20.5455 25.5H3.68182C2.83795 25.5 2.02864 25.1708 1.43193 24.5847C0.835226 23.9987 0.5 23.2038 0.5 22.375V3.625ZM14.2696 12.7437C14.9241 11.7831 15.1913 10.6177 15.0192 9.47426C14.8471 8.33083 14.248 7.29118 13.3385 6.55761C12.4291 5.82404 11.2742 5.44903 10.0988 5.50556C8.92329 5.56208 7.81128 6.04609 6.9791 6.8634C6.14693 7.68072 5.65412 8.77288 5.59657 9.92735C5.53902 11.0818 5.92084 12.216 6.66775 13.1093C7.41465 14.0025 8.47321 14.5909 9.63743 14.7599C10.8017 14.929 11.9883 14.6666 12.9664 14.0238L16.1176 17.1175L16.2029 17.19L16.2131 17.1975C16.4001 17.3307 16.6313 17.3901 16.8607 17.3638C17.0902 17.3376 17.3013 17.2276 17.4521 17.0557C17.6029 16.8839 17.6825 16.6626 17.6751 16.4358C17.6677 16.209 17.5738 15.9933 17.412 15.8313L14.2696 12.7437Z" fill="url(#paint0_linear_146_4615)"/>
<defs>
<linearGradient id="paint0_linear_146_4615" x1="11" y1="0.5" x2="11" y2="25.5" gradientUnits="userSpaceOnUse">
<stop stop-color="#FF707A"/>
<stop offset="1" stop-color="#B24E55"/>
</linearGradient>
</defs>
</svg>
