<svg width="136" height="448" viewBox="0 0 136 448" fill="none" xmlns="http://www.w3.org/2000/svg">
<rect width="136" height="448" rx="20" fill="#D35C65"/>
<rect x="44.2402" y="45.2002" width="47.52" height="47.52" rx="10.8" fill="#FFE4E4"/>
<path d="M66 58.96H70C70.5304 58.96 71.0391 59.1818 71.4142 59.5766C71.7893 59.9714 72 60.5069 72 61.0652V63.1705H76C76.5304 63.1705 77.0391 63.3923 77.4142 63.7871C77.7893 64.1819 78 64.7174 78 65.2758V76.8547C78 77.413 77.7893 77.9485 77.4142 78.3433C77.0391 78.7382 76.5304 78.96 76 78.96H60C59.4696 78.96 58.9609 78.7382 58.5858 78.3433C58.2107 77.9485 58 77.413 58 76.8547V65.2758C58 64.1073 58.89 63.1705 60 63.1705H64V61.0652C64 59.8968 64.89 58.96 66 58.96ZM70 63.1705V61.0652H66V63.1705H70Z" fill="#6E4A4D"/>
<rect x="44.2402" y="122.72" width="47.52" height="47.52" rx="10.8" fill="#FFE4E4"/>
<path d="M78 143.088V151.23C78.0001 152.06 77.6824 152.859 77.1123 153.462C76.5422 154.066 75.7628 154.428 74.934 154.475L74.75 154.48H61.25C60.4199 154.48 59.6212 154.162 59.0178 153.592C58.4144 153.022 58.052 152.243 58.005 151.414L58 151.23V143.088L67.652 148.144C67.7594 148.2 67.8788 148.23 68 148.23C68.1212 148.23 68.2406 148.2 68.348 148.144L78 143.088ZM61.25 138.48H74.75C75.5556 138.48 76.3325 138.779 76.93 139.319C77.5276 139.86 77.9032 140.602 77.984 141.404L68 146.634L58.016 141.404C58.0935 140.634 58.443 139.917 59.0017 139.382C59.5605 138.847 60.2917 138.529 61.064 138.485L61.25 138.48Z" fill="#6E4A4D"/>
<path d="M64.4995 208.622C65.8213 204.753 71.1658 204.636 72.733 208.27L72.8656 208.624L74.6493 213.84C75.0581 215.037 75.7187 216.132 76.5865 217.051C77.4543 217.97 78.5092 218.693 79.68 219.17L80.1596 219.349L85.3759 221.13C89.244 222.452 89.3611 227.797 85.7296 229.364L85.3759 229.497L80.1596 231.281C78.9629 231.689 77.8677 232.35 76.9481 233.218C76.0284 234.085 75.3055 235.141 74.8283 236.312L74.6493 236.789L72.8678 242.008C71.546 245.876 66.2015 245.993 64.6366 242.362L64.4995 242.008L62.718 236.791C62.3095 235.595 61.6491 234.499 60.7812 233.58C59.9134 232.66 58.8584 231.937 57.6874 231.46L57.2099 231.281L51.9936 229.499C48.1233 228.177 48.0062 222.832 51.6399 221.267L51.9936 221.13L57.2099 219.349C58.4062 218.94 59.5009 218.279 60.4202 217.411C61.3395 216.544 62.062 215.489 62.539 214.318L62.718 213.84L64.4995 208.622ZM86.3662 201C86.7797 201 87.1849 201.116 87.5357 201.335C87.8866 201.554 88.1691 201.866 88.351 202.238L88.4571 202.496L89.2307 204.764L91.5007 205.538C91.9151 205.679 92.2784 205.939 92.5445 206.287C92.8106 206.634 92.9676 207.053 92.9955 207.49C93.0234 207.927 92.9211 208.362 92.7014 208.74C92.4817 209.119 92.1546 209.424 91.7615 209.616L91.5007 209.722L89.2329 210.496L88.4593 212.766C88.3183 213.18 88.0574 213.544 87.7099 213.809C87.3623 214.075 86.9436 214.232 86.5068 214.26C86.0701 214.287 85.6349 214.185 85.2565 213.965C84.8781 213.745 84.5735 213.418 84.3813 213.025L84.2752 212.766L83.5016 210.498L81.2316 209.725C80.8172 209.584 80.4539 209.323 80.1878 208.976C79.9217 208.628 79.7648 208.209 79.7368 207.773C79.7089 207.336 79.8112 206.901 80.0309 206.522C80.2506 206.144 80.5777 205.839 80.9708 205.646L81.2316 205.54L83.4994 204.767L84.273 202.496C84.422 202.06 84.704 201.681 85.0794 201.412C85.4548 201.144 85.9047 201 86.3662 201Z" fill="#FFE4E4"/>
<rect x="44.2402" y="277.76" width="47.52" height="47.52" rx="10.8" fill="#FFE4E4"/>
<path d="M72.6654 304.418H71.7386L71.4101 304.102C72.1433 303.25 72.6791 302.248 72.9792 301.165C73.2794 300.083 73.3364 298.948 73.1463 297.841C72.595 294.582 69.8734 291.979 66.5887 291.58C65.434 291.434 64.2611 291.554 63.1598 291.931C62.0586 292.308 61.0581 292.931 60.2351 293.754C59.412 294.576 58.7881 295.576 58.4112 296.677C58.0343 297.777 57.9143 298.95 58.0603 300.104C58.4592 303.386 61.0635 306.106 64.3247 306.657C65.4322 306.847 66.5682 306.79 67.6511 306.49C68.7341 306.19 69.7373 305.655 70.589 304.922L70.9057 305.251V306.177L75.8914 311.16C76.3723 311.64 77.1583 311.64 77.6393 311.16C78.1202 310.679 78.1202 309.893 77.6393 309.413L72.6654 304.418ZM65.6268 304.418C62.7058 304.418 60.3479 302.062 60.3479 299.142C60.3479 296.223 62.7058 293.867 65.6268 293.867C68.5478 293.867 70.9057 296.223 70.9057 299.142C70.9057 302.062 68.5478 304.418 65.6268 304.418Z" fill="#6E4A4D"/>
<rect x="44.2402" y="355.28" width="47.52" height="47.52" rx="10.8" fill="#FFE4E4"/>
<path fill-rule="evenodd" clip-rule="evenodd" d="M60.172 370.212C59 371.383 59 373.269 59 377.04V381.04C59 384.811 59 386.697 60.172 387.868C61.344 389.039 63.229 389.04 67 389.04H69C72.771 389.04 74.657 389.04 75.828 387.868C76.999 386.696 77 384.811 77 381.04V377.04C77 373.269 77 371.383 75.828 370.212C74.656 369.041 72.771 369.04 69 369.04H67C63.229 369.04 61.343 369.04 60.172 370.212ZM64 376.29C63.8011 376.29 63.6103 376.369 63.4697 376.51C63.329 376.65 63.25 376.841 63.25 377.04C63.25 377.239 63.329 377.43 63.4697 377.57C63.6103 377.711 63.8011 377.79 64 377.79H72C72.1989 377.79 72.3897 377.711 72.5303 377.57C72.671 377.43 72.75 377.239 72.75 377.04C72.75 376.841 72.671 376.65 72.5303 376.51C72.3897 376.369 72.1989 376.29 72 376.29H64ZM64 380.29C63.8011 380.29 63.6103 380.369 63.4697 380.51C63.329 380.65 63.25 380.841 63.25 381.04C63.25 381.239 63.329 381.43 63.4697 381.57C63.6103 381.711 63.8011 381.79 64 381.79H69C69.1989 381.79 69.3897 381.711 69.5303 381.57C69.671 381.43 69.75 381.239 69.75 381.04C69.75 380.841 69.671 380.65 69.5303 380.51C69.3897 380.369 69.1989 380.29 69 380.29H64Z" fill="#6E4A4D"/>
</svg>
