<svg width="70" height="70" viewBox="0 0 70 70" fill="none" xmlns="http://www.w3.org/2000/svg">
<path d="M9.04867 8.85068C9.46665 8.74581 9.90118 8.72429 10.3275 8.78736C10.7538 8.85043 11.1635 8.99685 11.5332 9.21826C11.9029 9.43967 12.2253 9.73174 12.4821 10.0778C12.739 10.4238 12.9251 10.8171 13.0299 11.2351L17.2474 28.1182C17.3237 28.4489 17.4651 28.7611 17.6634 29.0366C17.8617 29.3121 18.1129 29.5453 18.4023 29.7226C18.6917 29.8999 19.0136 30.0178 19.3491 30.0693C19.6845 30.1209 20.0269 30.105 20.3562 30.0228C20.6855 29.9405 20.9951 29.7935 21.267 29.5903C21.5388 29.387 21.7674 29.1317 21.9395 28.8391C22.1115 28.5465 22.2236 28.2226 22.269 27.8862C22.3145 27.5499 22.2925 27.2078 22.2043 26.8801L17.6018 8.45256C17.4901 8.03222 17.4631 7.59386 17.5223 7.16299C17.5815 6.73211 17.7258 6.31731 17.9468 5.9427C18.1678 5.5681 18.4611 5.24116 18.8095 4.9809C19.158 4.72065 19.5547 4.53227 19.9767 4.42671C20.3986 4.32116 20.8373 4.30054 21.2672 4.36605C21.6972 4.43157 22.1099 4.58191 22.4812 4.80833C22.8526 5.03475 23.1752 5.33274 23.4303 5.68497C23.6855 6.0372 23.868 6.43664 23.9674 6.86006L28.9199 26.6919C29.0829 27.351 29.5011 27.9183 30.0824 28.2691C30.6637 28.6198 31.3605 28.7253 32.0196 28.5622C32.6787 28.3992 33.246 27.9811 33.5967 27.3998C33.9475 26.8185 34.0529 26.1216 33.8899 25.4626L30.7487 12.7313C30.5375 11.8866 30.6705 10.9926 31.1185 10.246C31.5665 9.49933 32.2927 8.96124 33.1374 8.75006C33.9821 8.53888 34.8761 8.67191 35.6228 9.11989C36.3694 9.56787 36.9075 10.2941 37.1187 11.1388L40.5968 25.2394C40.6824 25.5681 40.8319 25.8766 41.0367 26.1475C41.2416 26.4183 41.4978 26.6462 41.7907 26.818C42.0836 26.9899 42.4075 27.1024 42.7439 27.149C43.0803 27.1957 43.4225 27.1757 43.7512 27.0901C44.0798 27.0045 44.3884 26.855 44.6592 26.6501C44.9301 26.4453 45.1579 26.1891 45.3298 25.8961C45.5016 25.6032 45.6141 25.2793 45.6608 24.943C45.7074 24.6066 45.6874 24.2643 45.6018 23.9357L43.7512 17.1719C43.5336 16.329 43.6598 15.4341 44.1021 14.6842C44.5443 13.9343 45.2663 13.3907 46.1093 13.1732C46.9523 12.9556 47.8471 13.0818 48.5971 13.5241C49.347 13.9663 49.8905 14.6883 50.108 15.5313L53.3718 27.5801L53.3805 27.6107C53.4272 27.7332 53.4651 27.8586 53.4943 27.9869C54.1287 31.0669 54.6099 34.2651 54.6887 37.1307C54.833 42.4813 54.0062 49.4201 53.3324 54.0663C53.0299 56.0757 52.1578 57.9562 50.8195 59.4852C49.4812 61.0143 47.7327 62.1278 45.7812 62.6938L37.9762 65.0038C31.7199 66.8544 25.153 64.4963 20.9049 59.8807C17.2299 55.8776 12.4393 51.4369 7.8193 49.2451C6.39038 48.5824 5.27166 47.3948 4.69555 45.9288C4.36935 45.1027 4.29965 44.1976 4.49554 43.3313C4.69142 42.465 5.1438 41.6779 5.79367 41.0726C7.21089 39.6992 8.98647 38.753 10.9168 38.3426C11.5818 38.2084 12.2745 38.1471 12.9949 38.1588L6.6643 12.8276C6.55942 12.4096 6.5379 11.975 6.60097 11.5488C6.66404 11.1225 6.81046 10.7128 7.03187 10.3431C7.25329 9.97337 7.54536 9.65091 7.8914 9.39409C8.23744 9.13728 8.63069 8.95551 9.04867 8.85068ZM58.7574 4.39693C59.042 4.35615 59.3318 4.37187 59.6104 4.44318C59.8889 4.5145 60.1506 4.64002 60.3805 4.81256C63.8746 7.66552 66.4398 11.4945 67.7489 15.8113C69.0579 20.1281 69.0515 24.7369 67.7305 29.0501C67.6044 29.5089 67.3291 29.9128 66.9481 30.1979C66.5671 30.4831 66.102 30.6334 65.6262 30.6251L65.0137 30.5376C64.4567 30.3751 63.9871 29.9981 63.7081 29.4894C63.4292 28.9807 63.3637 28.382 63.5262 27.8251C64.5987 24.3659 64.6226 20.6666 63.5948 17.1939C62.567 13.7212 60.5336 10.6308 57.7512 8.31256C57.405 8.05278 57.1436 7.69613 57.0001 7.28774C56.8567 6.87936 56.8377 6.4376 56.9454 6.01838C57.0531 5.59916 57.2828 5.22132 57.6054 4.93269C57.9279 4.64406 58.3289 4.4576 58.7574 4.39693ZM55.9574 11.3313C55.7258 11.1646 55.4632 11.0458 55.1851 10.9819C54.9069 10.9179 54.6188 10.9102 54.3377 10.9591C54.0565 11.008 53.7879 11.1125 53.5477 11.2666C53.3074 11.4207 53.1004 11.6212 52.9387 11.8563C52.7675 12.0826 52.6429 12.3406 52.5722 12.6154C52.5015 12.8902 52.4861 13.1763 52.5268 13.4571C52.5675 13.7379 52.6635 14.0078 52.8093 14.2512C52.9551 14.4946 53.1478 14.7067 53.3762 14.8751C54.6478 15.98 55.6311 17.3781 56.2409 18.9484C56.8507 20.5187 57.0688 22.214 56.8762 23.8876C56.8522 24.175 56.8854 24.4644 56.9738 24.7389C57.0621 25.0135 57.2039 25.2679 57.3909 25.4875C57.578 25.7071 57.8066 25.8875 58.0636 26.0184C58.3207 26.1492 58.6011 26.228 58.8887 26.2501C59.4397 26.2518 59.9712 26.0455 60.3767 25.6724C60.7823 25.2993 61.0321 24.7869 61.0762 24.2376C61.3484 21.8314 61.0239 19.3952 60.1311 17.1442C59.2383 14.8932 57.8049 12.8968 55.9574 11.3313Z" fill="#403334"/>
</svg>
