<svg version="1.2" xmlns="http://www.w3.org/2000/svg" viewBox="0 0 1440 1175" width="1440" height="1175"><defs><linearGradient id="P" gradientUnits="userSpaceOnUse"/><linearGradient id="g1" x2="1" href="#P" gradientTransform="matrix(0,612,-1044.225,0,720,280)"><stop stop-color="#e6656e"/><stop offset="1" stop-color="#b24e55"/></linearGradient></defs><style>.a{fill:#fde7e8}.b{fill:#f7e1e2}.c{fill:#f7d9dc}.d{fill:#f7c1c5}.e{fill:#f7a8ae}.f{fill:#fa9da5}.g{fill:#f7edee}.h{fill:url(#g1)}.i{fill:none;stroke:#f78f97;stroke-width:28}</style><path class="a" d="m87 1172.3l-360 2.2c-11.1 0-20.1-8.9-20.1-19.9l-2.6-430c-0.1-11 8.8-20 19.9-20.1l360-2.2c11 0 20 8.9 20.1 19.9l2.6 430c0 11.1-8.9 20.1-19.9 20.1z"/><path class="b" d="m161.7 1131.9l-360 2.1c-11 0.1-20-8.8-20.1-19.8l-2.5-430c-0.1-11.1 8.8-20.1 19.8-20.2l360-2.1c11.1-0.1 20.1 8.8 20.2 19.9l2.5 430c0.1 11-8.8 20-19.9 20.1z"/><path class="c" d="m237.5 1091.4l-360 2.2c-11 0-20-8.9-20.1-19.9l-2.6-430c0-11 8.9-20 19.9-20.1l360-2.2c11 0 20.1 8.9 20.1 19.9l2.6 430c0 11.1-8.9 20.1-19.9 20.1z"/><path class="d" d="m311.3 1051l-360 2.1c-11.1 0.1-20.1-8.8-20.1-19.8l-2.6-430c-0.1-11.1 8.8-20.1 19.9-20.2l360-2.1c11-0.1 20 8.8 20.1 19.9l2.5 430c0.1 11-8.8 20-19.8 20.1z"/><path class="e" d="m386 1010.6l-360 2.1c-11 0.1-20-8.8-20.1-19.9l-2.6-430c0-11 8.9-20 19.9-20.1l360-2.1c11.1-0.1 20.1 8.8 20.1 19.8l2.6 430c0.1 11.1-8.8 20.1-19.9 20.2z"/><path class="f" d="m460.8 970.1l-360 2.2c-11.1 0-20.1-8.9-20.1-19.9l-2.6-430c-0.1-11.1 8.8-20.1 19.9-20.1l360-2.2c11 0 20 8.9 20.1 19.9l2.6 430c0 11-8.9 20-19.9 20.1z"/><path class="g" d="m1347 0h360c11 0 20 9 20 20v430c0 11-9 20-20 20h-360c-11 0-20-9-20-20v-430c0-11 9-20 20-20z"/><path class="b" d="m1272 40h360c11 0 20 9 20 20v430c0 11-9 20-20 20h-360c-11 0-20-9-20-20v-430c0-11 9-20 20-20z"/><path class="c" d="m1196 80h360c11 0 20 9 20 20v430c0 11-9 20-20 20h-360c-11 0-20-9-20-20v-430c0-11 9-20 20-20z"/><path class="d" d="m1122 120h360c11 0 20 9 20 20v430c0 11-9 20-20 20h-360c-11 0-20-9-20-20v-430c0-11 9-20 20-20z"/><path class="e" d="m1047 160h360c11 0 20 9 20 20v430c0 11-9 20-20 20h-360c-11 0-20-9-20-20v-430c0-11 9-20 20-20z"/><path class="f" d="m972 200h360c11 0 20 9 20 20v430c0 11-9 20-20 20h-360c-11 0-20-9-20-20v-430c0-11 9-20 20-20z"/><path class="h" d="m208 266h1024c18.8 0 34 15.2 34 34v572c0 18.8-15.2 34-34 34h-1024c-18.8 0-34-15.2-34-34v-572c0-18.8 15.2-34 34-34z"/><path class="i" d="m208 266h1024c18.8 0 34 15.2 34 34v572c0 18.8-15.2 34-34 34h-1024c-18.8 0-34-15.2-34-34v-572c0-18.8 15.2-34 34-34z"/></svg>